<svg width="60" height="60" viewBox="0 0 60 60" fill="none" xmlns="http://www.w3.org/2000/svg">
<path d="M9.52429 16H13.4509C13.943 16 14.3418 15.5775 14.3418 15.0563C14.3418 14.5352 13.943 14.1127 13.4509 14.1127H9.52429C8.06913 14.1127 6.83999 12.8921 6.78417 11.3921C6.78238 11.3449 6.78155 11.2981 6.78155 11.2514C6.78155 9.39639 8.20619 7.88723 9.95728 7.88723C10.9213 7.88723 11.8224 8.34408 12.4293 9.14061C12.6863 9.47792 13.1269 9.58624 13.4984 9.4033C13.8406 9.23459 14.2063 9.14903 14.5852 9.14903C15.4997 9.14903 16.3546 9.67042 16.8161 10.5097C16.9354 10.7269 17.1318 10.8847 17.3615 10.9479C17.5911 11.0112 17.8351 10.9749 18.0393 10.8469C18.3324 10.6632 18.6681 10.5661 19.0101 10.5661C19.9367 10.5661 20.7274 11.2661 20.8906 12.2305C20.9668 12.6802 21.3361 13.0077 21.7675 13.0077H24.65C24.9532 13.0077 25.2133 13.2558 25.2183 13.5494C25.2208 13.6993 25.168 13.8405 25.069 13.9473C24.9701 14.0539 24.838 14.1127 24.6967 14.1127H17.0138C16.5218 14.1127 16.1231 14.5352 16.1231 15.0563C16.1231 15.5775 16.5218 16 17.0138 16H24.6967C25.32 16 25.9036 15.7405 26.3402 15.2694C26.7768 14.7984 27.0109 14.1754 26.9996 13.5149C26.9769 12.1945 25.923 11.1204 24.65 11.1204H22.433C21.8795 9.66815 20.5403 8.67887 19.0101 8.67887C18.6271 8.67887 18.2478 8.74202 17.8863 8.86444C17.0655 7.86018 15.8597 7.26181 14.5852 7.26181C14.1696 7.26181 13.7632 7.32283 13.3708 7.4436C12.4543 6.51912 11.2417 6 9.95728 6C7.22385 6 5 8.35577 5 11.2514C5 11.3225 5.00143 11.3941 5.00404 11.4662C5.09846 14.0085 7.08405 16 9.52429 16Z" fill="white"/>
<path d="M59.1211 58.0881H58.549C59.4579 56.921 59.8872 55.1069 59.8872 52.4841C59.8872 49.2091 59.2343 45.0984 58.1833 41.7566C57.2689 38.849 55.6887 35.383 53.3525 35.383C52.1779 35.383 51.0883 36.2515 50.1044 37.9666C49.2518 36.4846 48.1751 35.383 46.858 35.383C45.4417 35.383 44.1526 36.6399 43.0214 39.1201C42.7906 39.0303 42.5431 38.9788 42.2842 38.9788H33.5247C33.0393 38.9788 32.6459 39.4068 32.6459 39.9348C32.6459 40.4626 33.0393 40.8906 33.5247 40.8906H42.2842C42.5263 40.8906 42.7232 41.1046 42.7232 41.3679V42.4489C42.7232 42.7121 42.5263 42.9262 42.2842 42.9262H17.7157C17.4737 42.9262 17.2769 42.7121 17.2769 42.4489V41.3679C17.2769 41.1046 17.4737 40.8906 17.7157 40.8906H30.0092C30.4946 40.8906 30.8881 40.4626 30.8881 39.9348C30.8881 39.4068 30.4946 38.9788 30.0092 38.9788H22.7212C23.3937 37.3456 23.7474 35.559 23.7474 33.7577C23.7474 26.7231 18.4854 21 12.0176 21C5.54976 21 0.287695 26.7231 0.287695 33.7577C0.287695 40.4257 5.01575 45.9144 11.017 46.4687V51.9132C10.8317 51.8862 10.6441 51.8719 10.4547 51.8719C10.121 51.8719 9.79305 51.914 9.47368 51.9974C8.45052 50.4933 6.77801 49.6078 5.03298 49.6963C2.36309 49.831 0.1848 52.2119 0.0742973 55.1173C0.0343317 56.1695 0.26941 57.2017 0.728788 58.1033C0.314997 58.1808 0 58.5719 0 59.044C0 59.572 0.393394 60 0.878904 60H2.58632H59.1211C59.6066 60 60 59.572 60 59.044C60 58.5162 59.6066 58.0881 59.1211 58.0881ZM17.7569 56.6938C17.7393 56.4153 17.6928 56.1391 17.622 55.8704H20.4285V58.0881H17.6246C17.7412 57.6423 17.7872 57.1724 17.7569 56.6938ZM36.8336 48.7858V50.1942H23.5533V48.7858H36.8336ZM40.5577 48.7858C40.5017 49.2632 40.4552 49.7339 40.4192 50.1942H38.5914V48.7858H40.5577ZM44.2366 52.1061C44.348 52.1061 44.4387 52.2048 44.4387 52.326V53.7385C44.4387 53.8599 44.348 53.9584 44.2366 53.9584H15.7635C15.652 53.9584 15.5612 53.8597 15.5612 53.7385V52.326C15.5612 52.2048 15.652 52.1061 15.7635 52.1061H44.2366ZM22.1865 55.8704H38.2004V58.0881H22.1865V55.8704ZM39.9583 55.8704H40.6618C40.8933 56.8212 41.2392 57.5433 41.6651 58.0881H39.9581L39.9583 55.8704ZM51.1008 39.9476C51.8623 38.2867 52.7039 37.2949 53.3526 37.2949C54.0768 37.2949 55.341 38.6255 56.5202 42.3754C57.4977 45.4838 58.1294 49.4519 58.1294 52.4841C58.1294 57.8735 56.3313 57.8735 53.3525 57.8735C52.9863 57.8735 52.6012 57.8729 52.2209 57.8566C53.0152 56.686 53.3927 54.9404 53.3927 52.4841C53.3927 49.2091 52.7399 45.0984 51.6888 41.7566C51.5089 41.1843 51.3028 40.5907 51.0706 40.0059C51.0809 39.9868 51.0914 39.9678 51.1008 39.9476ZM46.858 37.295C47.5822 37.295 48.8463 38.6255 50.0257 42.3755C51.0032 45.4839 51.6349 49.452 51.6349 52.4842C51.6349 57.8737 49.8368 57.8736 46.858 57.8736C44.4946 57.8736 43.1453 57.7763 42.5005 55.8706H44.2365C45.3174 55.8706 46.1964 54.9142 46.1964 53.7388V52.3262C46.1964 51.1508 45.3171 50.1945 44.2365 50.1945H42.1841C42.2226 49.7338 42.2714 49.2626 42.3307 48.7835C43.5203 48.7562 44.4808 47.6972 44.4808 46.3969V45.3159C44.4808 44.7779 44.3146 44.2825 44.0376 43.8827C44.3147 43.4828 44.4808 42.9875 44.4808 42.4494V41.3684C44.4808 41.0749 44.4296 40.7946 44.3401 40.5347C44.3625 40.4968 44.3835 40.4575 44.4012 40.4154C45.223 38.4613 46.1414 37.295 46.858 37.295ZM42.2842 44.8382C42.5263 44.8382 42.7232 45.0524 42.7232 45.3155V46.3965C42.7232 46.6597 42.5263 46.8738 42.2842 46.8738H17.7157C17.4737 46.8738 17.2769 46.6597 17.2769 46.3965V45.3155C17.2769 45.0524 17.4737 44.8382 17.7157 44.8382H42.2842ZM2.04563 33.7577C2.04563 27.7773 6.51914 22.9119 12.0177 22.9119C17.5162 22.9119 21.9896 27.7773 21.9896 33.7577C21.9896 35.5528 21.5783 37.3309 20.8002 38.8997C20.7874 38.9257 20.7761 38.9521 20.7657 38.9788H17.7158C16.5046 38.9788 15.5192 40.0505 15.5192 41.3679V42.4489C15.5192 42.9356 15.6544 43.3884 15.8851 43.7664C15.8522 43.7764 15.8194 43.7878 15.7869 43.8023C14.8235 44.2303 13.8129 44.4856 12.7749 44.5698V37.0385L15.8114 33.7357C16.1548 33.3623 16.1548 32.7571 15.8114 32.3839C15.4681 32.0106 14.9118 32.0106 14.5685 32.3839L12.7749 34.3346V31.8396C12.7749 31.3116 12.3815 30.8837 11.896 30.8837C11.4106 30.8837 11.0172 31.3116 11.0172 31.8396V37.5867L9.32638 35.7483C8.98301 35.3749 8.4266 35.3748 8.08337 35.7483C7.74013 36.1216 7.74013 36.7269 8.08337 37.1002L11.0171 40.2911V44.5491C5.98652 44.0013 2.04563 39.371 2.04563 33.7577ZM12.7749 46.4887C13.7114 46.424 14.6293 46.2393 15.5189 45.9366V46.3965C15.5189 47.714 16.5044 48.7857 17.7157 48.7857H21.7955V50.1941H15.7634C14.6825 50.1941 13.8034 51.1505 13.8034 52.3259V52.9416C13.6157 52.9546 13.43 52.9815 13.2468 53.0257C13.0975 52.8816 12.9397 52.7501 12.7748 52.6313L12.7749 46.4887ZM2.91246 58.0881C2.17992 57.3405 1.78852 56.3031 1.83058 55.1962C1.90395 53.2722 3.34641 51.6953 5.11453 51.6063C6.46465 51.5391 7.69196 52.2991 8.32642 53.5912C8.54368 54.0336 9.03809 54.2182 9.45951 54.014C9.77446 53.8614 10.1093 53.7839 10.4548 53.7839C11.1751 53.7839 11.8561 54.1275 12.3232 54.7266C12.5675 55.0401 12.9687 55.1486 13.3197 54.9961C13.5668 54.8887 13.8259 54.8388 14.0916 54.8455C14.4289 55.446 15.0302 55.8514 15.7198 55.8679C15.884 56.1584 15.9824 56.4891 16.0034 56.8248C16.0319 57.2763 15.9329 57.7133 15.7218 58.0881H2.91246Z" fill="white"/>
<path d="M32.8634 28H41.7911C42.2842 28 42.6838 27.5811 42.6838 27.0646C42.6838 26.5479 42.2842 26.1291 41.7911 26.1291H32.8634C32.273 26.1291 31.7894 25.6421 31.7855 25.0433C31.7855 25.0406 31.7854 25.0294 31.7854 25.0267C31.7854 23.7388 32.7858 22.6692 34.0157 22.6425C34.4454 22.6333 34.8078 22.3043 34.8779 21.8595C35.2418 19.5486 37.1303 17.8711 39.3685 17.8711C41.6179 17.8711 43.5082 19.5579 43.863 21.8819C43.9393 22.3808 44.3803 22.7256 44.8577 22.6619C44.9735 22.6464 45.0665 22.6392 45.1508 22.6392C45.9562 22.6392 46.7098 23.0928 47.1178 23.823C47.278 24.1096 47.5711 24.2857 47.888 24.2857H50.3354C50.8203 24.2857 51.2148 24.6992 51.2148 25.2074C51.2148 25.7155 50.8204 26.1291 50.3354 26.1291H45.3613C44.8683 26.1291 44.4688 26.5479 44.4688 27.0646C44.4688 27.5811 44.8683 28 45.3613 28H50.3354C51.8046 28 53 26.7473 53 25.2074C53 23.6675 51.8046 22.4147 50.3354 22.4147H48.3589C47.6568 21.4706 46.5974 20.871 45.4544 20.7803C44.6803 17.9667 42.2336 16 39.3685 16C36.4832 16 34.0152 18.0029 33.2633 20.8549C31.4097 21.249 30 22.9838 30 25.0266L30.0001 25.0561C30.011 26.6794 31.2954 28 32.8634 28Z" fill="white"/>
</svg>
