<svg width="60" height="60" viewBox="0 0 60 60" fill="none" xmlns="http://www.w3.org/2000/svg">
<path d="M59.1211 43.2197C59.6065 43.2197 60 42.8249 60 42.3376V40.6316C60 38.9071 58.688 37.504 57.0754 37.504H55.6529V35.6965C55.6529 34.4318 54.6277 33.403 53.3676 33.403H46.2931C45.033 33.403 44.0078 34.432 44.0078 35.6965V40.4036C37.688 39.6636 29.8214 39.6625 23.4909 40.4036V35.6965C23.4909 34.4318 22.4656 33.403 21.2056 33.403H20.6467C25.4648 30.4583 30.8532 26.4652 35.0545 22.5764L37.8132 26.3828C38.5556 27.4072 39.9886 27.6311 41.0057 26.8886L46.7268 22.7122C47.7458 21.9684 47.9719 20.5308 47.2307 19.5079L46.1713 18.0463L47.3217 17.2067C48.6258 16.2544 48.8645 14.3454 47.8537 12.9507L43.0831 6.36804C42.0722 4.97362 40.1892 4.61338 38.8849 5.56545L37.7345 6.40532L36.6753 4.94375C35.9342 3.92075 34.5021 3.69411 33.4829 4.4379L27.7617 8.61433C26.7427 9.35808 26.5167 10.7954 27.2578 11.8183L30.0166 15.6248C24.4705 18.7583 18.1096 23.4006 13.4246 27.7371L11.3953 24.9373C10.2524 23.3605 8.04141 23.01 6.4705 24.1572L2.75497 26.8694C1.18302 28.0173 0.834387 30.2346 1.97778 31.8123L2.30755 32.2673L1.15736 33.1069C-0.172835 34.0779 -0.364901 35.9967 0.625214 37.3629L5.3959 43.9454C5.91786 44.6657 6.68285 45.1238 7.49869 45.2456V48.7714C7.49869 50.4959 8.8107 51.899 10.4233 51.899H11.8458V53.7064C11.8458 54.9711 12.871 56 14.1311 56H21.2056C22.4657 56 23.4909 54.9709 23.4909 53.7064V48.9998C25.9888 49.2916 28.7966 49.4749 31.6808 49.5331C31.6868 49.5334 31.6928 49.5334 31.6988 49.5334C32.176 49.5334 32.5677 49.1499 32.5774 48.669C32.5871 48.1819 32.2016 47.7791 31.7161 47.7693C28.8081 47.7105 25.9831 47.5227 23.4909 47.2236V42.1793C29.7085 41.4314 37.6611 41.4159 44.0078 42.1793V47.2236C41.5158 47.5227 38.6907 47.7105 35.7825 47.7693C35.2972 47.7791 34.9116 48.1819 34.9213 48.6687C34.931 49.1499 35.3225 49.5334 35.7999 49.5334C35.8059 49.5334 35.8119 49.5334 35.8179 49.5331C38.7022 49.4749 41.51 49.2916 44.0078 48.9998V53.7064C44.0078 54.9711 45.0331 56 46.2931 56H53.3676C54.6278 56 55.6529 54.9709 55.6529 53.7064V51.899H57.0754C58.688 51.899 60 50.4959 60 48.7714V46.4544C60 45.9671 59.6065 45.5723 59.1211 45.5723C58.6357 45.5723 58.2422 45.9671 58.2422 46.4544V48.7714C58.2422 49.5103 57.7079 50.1348 57.0755 50.1348H55.653V39.2685H57.0755C57.7078 39.2685 58.2422 39.8927 58.2422 40.6317V42.3377C58.2421 42.8249 58.6357 43.2197 59.1211 43.2197ZM39.9189 6.99223C40.4302 6.61912 41.2285 6.80835 41.6614 7.40596L46.432 13.9886C46.8652 14.5862 46.799 15.4066 46.2876 15.7799L45.1372 16.6195C44.4251 15.6365 39.4924 8.8306 38.7686 7.83188L39.9189 6.99223ZM28.6795 10.7808C28.5114 10.5487 28.5646 10.2101 28.7957 10.0413L34.5169 5.86478C34.7491 5.69553 35.086 5.75023 35.2536 5.98156C35.6093 6.47248 43.808 17.7849 44.2326 18.3709C44.2324 18.3707 44.2328 18.3711 44.2326 18.3709L45.809 20.5458C45.9772 20.7779 45.9239 21.1165 45.6928 21.2853L39.9714 25.4618C39.7391 25.6311 39.4052 25.5801 39.2349 25.345C38.8881 24.8667 29.098 11.3581 28.6795 10.7808ZM31.0573 17.061L34.0139 21.1403C29.4411 25.3998 23.027 30.1085 17.4216 33.252L14.4655 29.1733C19.026 24.925 25.4439 20.2088 31.0573 17.061ZM7.49869 40.6316V43.4317C7.23729 43.334 6.9956 43.1531 6.81771 42.9075L2.04704 36.3249C1.59411 35.7002 1.69537 34.896 2.19154 34.5337L3.34173 33.6941C3.48118 33.8866 4.57301 35.393 7.65048 39.6394C7.54567 39.9736 7.49869 40.3185 7.49869 40.6316ZM11.8458 50.1347H10.4233C9.791 50.1347 9.25659 49.5103 9.25659 48.7713C9.25659 47.9743 9.25659 41.4623 9.25659 40.6315C9.25659 40.3234 9.358 39.9906 9.55879 39.7293C9.79782 39.4174 10.1211 39.2682 10.4233 39.2682H11.8457L11.8458 50.1347ZM11.8458 35.6964V37.5039H10.4233C10.3519 37.5039 10.2813 37.5075 10.2111 37.5131C10.1987 37.5141 10.1863 37.515 10.1738 37.5162C9.62962 37.5656 9.1276 37.7748 8.70886 38.1L3.3995 30.7742C2.82622 29.9834 3.00094 28.8716 3.78903 28.2962L7.50455 25.584C8.28918 25.0109 9.40252 25.1869 9.97358 25.9751C10.6136 26.858 14.672 32.4579 15.3568 33.4027H14.131C12.871 33.4027 11.8458 34.4317 11.8458 35.6964ZM21.7331 53.7063C21.7331 53.9931 21.4916 54.2355 21.2057 54.2355H14.1312C13.8454 54.2355 13.6038 53.9931 13.6038 53.7063C13.6038 52.8761 13.6038 36.2378 13.6038 35.6965C13.6038 35.4097 13.8454 35.1674 14.1312 35.1674C15.9197 35.1674 16.9073 35.1674 17.4215 35.1674C17.7919 35.1674 17.9167 35.1674 17.9177 35.1674C18.4316 35.1674 19.4185 35.1674 21.2057 35.1674C21.4916 35.1674 21.7331 35.4097 21.7331 35.6965C21.7331 36.7882 21.7331 53.035 21.7331 53.7063ZM53.8951 53.7063C53.8951 53.9931 53.6536 54.2355 53.3677 54.2355H46.2932C46.0074 54.2355 45.7658 53.9931 45.7658 53.7063V35.6965C45.7658 35.4097 46.0074 35.1674 46.2932 35.1674H53.3677C53.6536 35.1674 53.8951 35.4097 53.8951 35.6965C53.8951 36.783 53.8951 53.1233 53.8951 53.7063Z" fill="white"/>
</svg>
