<svg width="60" height="60" viewBox="0 0 60 60" fill="none" xmlns="http://www.w3.org/2000/svg">
<g clip-path="url(#clip0_534_31)">
<path d="M58.5178 38.4619C56.412 38.4619 55.3278 39.4738 54.371 40.3668C53.4986 41.1813 52.8095 41.8244 51.3129 41.8244C49.8161 41.8244 49.1267 41.1811 48.2545 40.3668C47.2978 39.4741 46.2134 38.4619 44.1078 38.4619C42.8967 38.4619 41.888 38.7987 40.9332 39.5225C40.5222 39.8339 40.4009 40.4835 40.6623 40.973C40.9238 41.4627 41.4688 41.6071 41.88 41.2956C42.358 40.9336 42.9963 40.5635 44.1078 40.5635C45.6045 40.5635 46.2938 41.2067 47.1661 42.021C48.1229 42.9139 49.207 43.9259 51.3129 43.9259C53.4185 43.9259 54.5028 42.9139 55.4595 42.021C56.3319 41.2067 57.021 40.5635 58.5178 40.5635C59.005 40.5635 59.4001 40.093 59.4001 39.5127C59.4001 38.9325 59.005 38.4619 58.5178 38.4619Z" fill="white"/>
<path d="M6.32312 41.399C5.85049 41.1342 5.45117 40.7615 5.0284 40.367C4.07184 39.4741 2.98779 38.4619 0.882197 38.4619C0.394916 38.4619 0 38.9325 0 39.5127C0 40.093 0.394916 40.5635 0.882197 40.5635C2.37869 40.5635 3.06772 41.2067 3.93993 42.021C4.4214 42.4704 4.919 42.9347 5.57217 43.3008C5.69341 43.3688 5.82116 43.401 5.94703 43.401C6.27812 43.401 6.59573 43.1776 6.74593 42.7971C6.95344 42.2718 6.76407 41.6459 6.32312 41.399Z" fill="white"/>
<path d="M45.0875 0.0810547C38.9098 0.0810547 33.8838 6.06716 33.8838 13.4248V23.6175H14.6534V13.4248C14.6534 9.5436 17.3049 6.38591 20.5641 6.38591C23.8226 6.38591 26.4735 9.5436 26.4735 13.4248V13.7401C26.4735 15.4782 27.6607 16.8925 29.1201 16.8925C30.5793 16.8925 31.7666 15.4782 31.7666 13.7401V13.4248C31.7666 6.06692 26.7411 0.0810547 20.5641 0.0810547C14.3863 0.0810547 9.36035 6.06692 9.36035 13.4248V46.685C9.36035 47.2652 9.75546 47.7358 10.2425 47.7358C10.7298 47.7358 11.1247 47.2652 11.1247 46.685V13.4248C11.1247 7.22594 15.3593 2.18266 20.5641 2.18266C25.7682 2.18266 30.0022 7.22594 30.0022 13.4248V13.7401C30.0022 14.3194 29.6065 14.7908 29.1201 14.7908C28.6335 14.7908 28.2378 14.3194 28.2378 13.7401V13.4248C28.2378 8.38471 24.7953 4.28423 20.5641 4.28423C16.3321 4.28423 12.8891 8.38496 12.8891 13.4248V44.1013C12.8891 44.6816 13.2841 45.1521 13.7714 45.1521C14.2586 45.1521 14.6535 44.6816 14.6535 44.1013V42.5313H33.8839V46.6947C33.8839 47.275 34.2789 47.7455 34.7661 47.7455C35.2534 47.7455 35.6483 47.275 35.6483 46.6947V13.4248C35.6483 7.22594 39.8829 2.18266 45.0877 2.18266C50.2919 2.18266 54.5258 7.22594 54.5258 13.4248V13.7401C54.5258 14.3194 54.1302 14.7908 53.6437 14.7908C53.1573 14.7908 52.7615 14.3194 52.7615 13.7401V13.4248C52.7615 8.38471 49.319 4.28423 45.0877 4.28423C40.8557 4.28423 37.4127 8.38496 37.4127 13.4248V17.2588C37.4127 17.8392 37.8077 18.3096 38.2949 18.3096C38.7821 18.3096 39.1771 17.8392 39.1771 17.2588V13.4248C39.1771 9.5436 41.8286 6.38591 45.0878 6.38591C48.3463 6.38591 50.9973 9.5436 50.9973 13.4248V13.7401C50.9973 15.4782 52.1845 16.8925 53.6438 16.8925C55.103 16.8925 56.2905 15.4782 56.2905 13.7401V13.4248C56.2902 6.06716 51.2646 0.0810547 45.0875 0.0810547ZM14.6535 25.7195H33.8838V28.0312H14.6535V25.7195ZM33.8839 36.0164H21.6518C21.1645 36.0164 20.7697 36.487 20.7697 37.0672C20.7697 37.6475 21.1645 38.1179 21.6518 38.1179H33.8837V40.4296H14.6535V38.1179H18.7111C19.1985 38.1179 19.5935 37.6475 19.5935 37.0672C19.5935 36.487 19.1985 36.0164 18.7111 36.0164H14.6534V30.1322H33.8839V36.0164Z" fill="white"/>
<path d="M38.2963 19.7148C37.809 19.7148 37.4141 20.1853 37.4141 20.7656V47.0238C37.4141 47.6041 37.809 48.0745 38.2963 48.0745C38.7837 48.0745 39.1785 47.6041 39.1785 47.0238V20.7656C39.1785 20.1853 38.7834 19.7148 38.2963 19.7148Z" fill="white"/>
<path d="M58.5185 46.3135C56.4128 46.3135 55.3285 47.3255 54.3719 48.2184C53.4993 49.0329 52.8103 49.6759 51.3136 49.6759C49.8168 49.6759 49.1275 49.0327 48.2552 48.2184C47.2985 47.3256 46.2141 46.3135 44.1085 46.3135C42.0029 46.3135 40.9187 47.3256 39.962 48.2184C39.0895 49.0329 38.4004 49.6759 36.9039 49.6759C35.4072 49.6759 34.7181 49.0327 33.8457 48.2184C32.8892 47.3256 31.8049 46.3135 29.6993 46.3135C27.5939 46.3135 26.5097 47.3256 25.5531 48.2184C24.6807 49.0329 23.9917 49.6759 22.4952 49.6759C20.9987 49.6759 20.3096 49.0327 19.4373 48.2184C18.4807 47.3256 17.3965 46.3135 15.2908 46.3135C13.1852 46.3135 12.1009 47.3256 11.1444 48.2184C10.2719 49.0329 9.58303 49.6759 8.08636 49.6759C6.58979 49.6759 5.90073 49.0327 5.0284 48.2184C4.07184 47.3256 2.98779 46.3135 0.882197 46.3135C0.394916 46.3135 0 46.7841 0 47.3644C0 47.9447 0.394916 48.415 0.882197 48.415C2.37869 48.415 3.06772 49.0584 3.94005 49.8727C4.89661 50.7655 5.98068 51.7776 8.08636 51.7776C10.1919 51.7776 11.2761 50.7655 12.2327 49.8727C13.1052 49.0582 13.7941 48.415 15.2908 48.415C16.7873 48.415 17.4765 49.0584 18.3488 49.8727C19.3055 50.7655 20.3897 51.7776 22.4952 51.7776C24.6007 51.7776 25.6849 50.7655 26.6415 49.8727C27.5139 49.0582 28.2028 48.415 29.6993 48.415C31.196 48.415 31.8851 49.0584 32.7573 49.8727C33.714 50.7655 34.7981 51.7776 36.9039 51.7776C39.0095 51.7776 40.0936 50.7655 41.0503 49.8727C41.9227 49.0582 42.6117 48.415 44.1085 48.415C45.6052 48.415 46.2945 49.0584 47.1668 49.8727C48.1236 50.7655 49.2079 51.7776 51.3136 51.7776C53.4192 51.7776 54.5036 50.7655 55.4603 49.8727C56.3327 49.0582 57.0217 48.415 58.5185 48.415C59.0057 48.415 59.4007 47.9447 59.4007 47.3644C59.4007 46.7839 59.0057 46.3135 58.5185 46.3135Z" fill="white"/>
<path d="M58.52 54.168C56.4143 54.168 55.33 55.1798 54.3734 56.0729C53.501 56.8872 52.8118 57.5303 51.3151 57.5303C49.8183 57.5303 49.1291 56.887 48.2567 56.0729C47.3 55.18 46.2158 54.168 44.11 54.168C42.0044 54.168 40.9202 55.18 39.9635 56.0729C39.091 56.8872 38.402 57.5303 36.9054 57.5303C35.4087 57.5303 34.7196 56.887 33.8472 56.0729C32.8907 55.18 31.8064 54.168 29.7008 54.168C27.5954 54.168 26.5112 55.18 25.5547 56.0729C24.6822 56.8872 23.9934 57.5303 22.4967 57.5303C21.0002 57.5303 20.3111 56.887 19.4388 56.0729C18.4823 55.18 17.3982 54.168 15.2924 54.168C14.8051 54.168 14.4102 54.6384 14.4102 55.2187C14.4102 55.7989 14.8051 56.2695 15.2924 56.2695C16.789 56.2695 17.4782 56.9126 18.3506 57.7269C19.3071 58.6197 20.3914 59.6318 22.4967 59.6318C24.6023 59.6318 25.6864 58.6197 26.643 57.7269C27.5155 56.9124 28.2043 56.2695 29.7008 56.2695C31.1975 56.2695 31.8867 56.9126 32.759 57.7269C33.7155 58.6197 34.7996 59.6318 36.9054 59.6318C39.011 59.6318 40.0952 58.6198 41.0519 57.7269C41.9243 56.9124 42.6134 56.2695 44.11 56.2695C45.6067 56.2695 46.296 56.9126 47.1684 57.7269C48.1251 58.6197 49.2094 59.6318 51.3151 59.6318C53.4208 59.6318 54.5051 58.6198 55.4618 57.7269C56.3342 56.9124 57.0234 56.2695 58.52 56.2695C59.0074 56.2695 59.4023 55.7989 59.4023 55.2187C59.4023 54.6384 59.0074 54.168 58.52 54.168Z" fill="white"/>
<path d="M12.3826 56.252C12.0823 55.7954 11.5279 55.715 11.1442 56.073C10.2718 56.8874 9.58292 57.5304 8.08636 57.5304C6.58979 57.5304 5.90073 56.887 5.0284 56.0729C4.07184 55.18 2.98779 54.168 0.882197 54.168C0.394916 54.168 0 54.6384 0 55.2187C0 55.7989 0.394916 56.2695 0.882197 56.2695C2.37869 56.2695 3.06772 56.9126 3.94005 57.7269C4.89661 58.6197 5.98068 59.6318 8.08636 59.6318C10.1919 59.6318 11.276 58.62 12.2326 57.727C12.616 57.3692 12.6833 56.7089 12.3826 56.252Z" fill="white"/>
</g>
<defs>
<clipPath id="clip0_534_31">
<rect width="60" height="60" fill="white"/>
</clipPath>
</defs>
</svg>
