<?xml version="1.0" encoding="utf-8"?>
<!-- Generator: Adobe Illustrator 26.0.3, SVG Export Plug-In . SVG Version: 6.00 Build 0)  -->
<svg version="1.1" id="Capa_1" xmlns="http://www.w3.org/2000/svg" xmlns:xlink="http://www.w3.org/1999/xlink" x="0px" y="0px"
	 viewBox="0 0 512 512" style="enable-background:new 0 0 512 512;" xml:space="preserve">
<style type="text/css">
	.st0{fill:#3C86CF;}
	.st1{fill:#444444;}
	.st2{fill:#FECDBE;}
	.st3{fill:#D67E4A;}
	.st4{fill:#5A5A5A;}
	.st5{fill:#EF7280;}
	.st6{fill:#EA5569;}
	.st7{fill:#C76D36;}
	.st8{fill:#FEFEFE;}
	.st9{fill:#0078C7;}
	.st10{fill:#FEAF9D;}
	.st11{fill:#FEA68E;}
	.st12{fill:#FDA68E;}
	.st13{fill:#FD8F83;}
	.st14{fill:#FD8E82;}
	.st15{fill:#FDFDFD;}
	.st16{fill:#FCAE9C;}
	.st17{fill:#010101;}
	.st18{fill:#010000;}
	.st19{fill:#8BA2B6;}
	.st20{fill:#404040;}
	.st21{fill:#F78EA3;}
	.st22{fill:#DCC99F;}
	.st23{fill:#FEE3C1;}
	.st24{fill:#DDCA9F;}
	.st25{fill:#C6EEBB;}
	.st26{fill:#EF5475;}
	.st27{fill:#57758C;}
	.st28{fill:#A9E699;}
	.st29{fill:#F1D0A4;}
	.st30{fill:#FCFCFC;}
	.st31{fill:#FEFDFD;}
	.st32{fill:#FEFCFD;}
	.st33{fill:#E39442;}
	.st34{fill:#FEC150;}
	.st35{fill:#FECF64;}
	.st36{fill:#E18324;}
	.st37{fill:#DCE9FA;}
	.st38{fill:#CAE1FD;}
	.st39{fill:#DF8224;}
	.st40{fill:#DC636D;}
	.st41{fill:#DC626D;}
</style>
<g>
	<path d="M79.5,161.9c-3.7,5.2-5.8,6-11.8,3.9c-8.5-2.9-17-5.8-25.4-8.8c-17.8-6.5-27.6-23.2-24.4-41.4c3-17.1,19-29.8,37.5-29.6
		c3.2,0,4.8,0.1,4.7-4.2c-0.6-22.2,16.8-39.4,38.9-39.1c1.5,0,3,0,4.4,0c-1-19.2,7.1-33.5,22.8-40.1c18.7-7.8,40.2,1.6,47.6,21.4
		c7.4,19.9,14,40.1,21,60.2c0.9,2.5,1.7,5,2.6,7.5c2-0.1,2.6-1.7,3.5-2.7c91-99.9,255.4-65.5,298.7,62.5
		c29.4,86.8-13.8,182.7-98.4,218.6c-6.2,2.6-8.3,2-12.2-3.3c-2.2-4.8-0.4-8.5,5.3-11.3c8.1-3.9,16.2-7.7,23.8-12.6
		c36.6-24,60.4-57.1,70.2-99.9c2.9-12.7,4.6-25.6,4.1-38.6c-1.5-39.3-14.6-74-41-103.7c-18-20.3-39.8-34.6-65.1-44
		c-13-5-26.5-7.3-40.4-8.7c-31.6-3.1-61.2,3.5-89.3,17.8c-18.2,9.3-33.3,22.5-46.9,37.6c-5.5,6.1-5.4,7.5-1.2,15.6
		c2.7,3.2,5.3,7.8,8.9,8.3c4.2,0.6,5.8-5.2,8.3-8.2c22.5-26.5,50.8-42.6,85-47.9c28-4.4,55-0.4,80.6,12
		c33.8,16.4,56.9,42.5,70.2,77.5c1.6,4.4,2.8,8.9,4.2,13.3c2.2,11.1,4.4,22.3,4.2,33.6c-0.5,32.8-10.6,62.2-31.6,87.6
		c-24.1,29.2-55.3,45.6-92.7,49.5c-15.2,1.6-30.6,0.9-45.7-2.8c-18.1-4.6-34.9-12-49.9-23.2c-30.2-22.6-48.3-52.6-54.6-89.7
		c-0.6-3.4-1.3-6.9-1.2-10.4c0.1-2.8-1.3-3.9-4.1-3.5c-3.9,0.5-7.9,1.6-11.9,0.6c-6.3-1.1-6.8-0.8-6.3,5.5
		c1.1,13.4,3.7,26.6,8.4,39.3c1.1,3.7,2.1,7.5,3.2,11.2c4,19.5,3.1,38.7-3.6,57.5c-5.4,15.4-14.4,28.4-25.6,40.1c-3.9,4.1-8,8-12,12
		c-3.9,4-3.9,4.1-0.1,7.9c1.1,1.1,2.1,2.1,3.2,3.1c9.8,9.7,7.4,9.7,16.8,0.1c10-10.1,20.1-19.9,32.7-26.7
		c14.3-7.7,29.4-11.9,45.8-12.4c14.2-0.4,27.7,2,41.1,6.6c24.6,8.4,49.8,9.4,75.4,5.8c3.8-0.5,7.5-1.7,11.4-1.2
		c3.7,0.5,6.8,1.7,6.8,6.3c-0.3,6.5-2,8.6-8.3,9.8c-31.2,6-61.8,4.4-92-5.7c-36.2-12.1-67.7-4.4-94.6,22.5c-3.1,3.1-6,6.3-9.2,9.1
		c-5.7,5-10,10.2-9,18.9c0.7,5.9-2.9,11.2-7.1,15.4c-21,21.1-42.1,42.1-63.2,63.3c-3.8,3.9-8.8,5.5-13.6,7.6c-3.7,0-7.3,0-11,0
		c-14.8-6.2-24.1-18.9-34.5-30.1c-9.1-9.9-7.4-25.1,2.6-35.2c14.7-14.9,29.6-29.7,44.5-44.5c5.7-5.7,11.3-11.3,17-17
		c6.4-6.4,14-9.4,23-8.3c1.7,0.2,3.2,0.5,4.6-1c10.1-10.8,21.9-20.1,30.1-32.6c15-22.9,19.1-47.6,10.8-73.8
		c-6.2-19.6-10.6-39.5-10.7-60.1c0-2-0.5-3.5-2.3-4.6c-1.1-0.7-2.3-1.5-3-2.6c-8.5-11.3-20.9-15.7-33.7-19.6
		c-5.4-1.6-10.7-3.7-16-5.5c-6.3-2.2-7.5-3.8-7.4-10.6c2.1-5.2,5.3-6.9,11.5-5c8.2,2.5,16.4,5.2,24.5,8.2c0.6,0.2,1.3,0.4,1.8,0.7
		c5.7,3.2,10.6,2.7,14.4-3c14-13.8,27.7-27.8,41.7-41.6c2.7-2.7,3.4-5.3,2.1-8.9c-10-28.1-19.6-56.3-29.3-84.5
		c-2.3-6.7-6.1-12.3-13.1-14.7c-8.9-3-17-0.5-22.7,6.9c-5.4,7.1-5.6,17.6-0.5,25.3c0.9,1.4,2.1,2.6,3,4c2.5,4.1,2.1,8.7-0.8,11.5
		c-3.2,3-7.1,3.3-11.4,0.3c-5-3.5-10-6.4-16.4-6.4C89.4,59.3,83.3,63,79.3,70c-4.2,7.2-4.3,14.6,0,21.8c1.2,2,2.7,3.8,3.9,5.8
		c2.5,4.1,2,8.3-1.3,11.3c-3.2,2.8-7.2,3.1-10.9,0.2c-4.1-3.3-8.4-6-13.7-6.6c-3-0.4-6-0.1-8.9,0.9c-9.6,3.6-14.7,10.3-14.7,19.2
		c0,8.7,5.9,16.3,15.1,19.6c8.1,2.9,16.5,5.2,24.5,8.5c1.8,0.8,3.8,1.4,5.1,3C80.3,156.1,82.3,158.7,79.5,161.9z"/>
	<path class="st33" d="M386.7,56c19,6.1,35.7,16.2,50.6,29.2c31.6,27.5,50,62.2,55.1,103.8c8.6,69.9-30.4,137.9-95,166.5
		c-8.2,3.6-8.9,4.6-8.6,11.4c-4.4,1.4-8.8,2.8-13.1,4.1c-2.2-4.9-6.1-6.1-11.1-5c-30.3,6.2-59.7,3-89-6.3
		c-37.5-11.9-71.3-3.5-100.5,22.7c-6.3,5.7-12.2,11.9-18.1,18c-1.9,1.9-3.1,2.5-5,0.1c-2.2-2.7-4.8-5.1-7.2-7.6
		c-1.4-2.7,0.9-4,2.2-5.4c4.4-4.6,8.9-9,13.4-13.4c26.5-26.2,33.6-57.4,24.7-93c-0.8-3-1.4-6.1-2.4-9c-1-3.5-2-7.1-3.1-10.6
		c-3.6-13.5-6.4-27.1-5.4-41.2c0.2-2.8-0.3-6.6,4.7-5.3c4.3-0.3,8.7-0.3,12.9-1.1c3.3-0.7,3.6,0.6,3.7,3.2c2.3,33.2,15,61.8,38,85.8
		c16.7,17.5,36.8,29.4,60,36.2c2.1,0.6,4.1,1.3,6.1,2c14.2,4.5,28.8,7.6,43.5,7.4c32.7-0.4,62-10.5,86.6-32.9
		c25.7-23.3,39.4-52.4,42.3-86.6c1.5-17.4-1.8-34.4-6.4-51.2c-0.3-1.2-0.1-2.7-1.1-3.7c-5.3-17.6-12.7-34.2-23.9-49
		c-55.2-72.8-166-71.7-219.5,2.4c-2.2,3.1-3.6,4.1-6.3,0.7c-2.2-2.9-4.9-5.4-7.4-8c0.5-2,1.7-3.6,2.9-5.2
		c30-37.1,68.8-58.6,116.2-64.1c19-2.2,37.8-1.4,56.3,4.2C384.2,55.5,385.6,55.2,386.7,56z"/>
	<path class="st34" d="M145.8,168.1c-5.8,6.8-5.8,6.8-13.8,4.1c-8.9-3.1-17.9-5.9-26.8-9.2c-5.3-2-9.3-1.3-12.4,3.6
		c-4.4-1.5-8.9-3-13.3-4.5c0.8-5.3-1.4-8.5-6.5-10.1c-8.7-2.8-17.3-5.8-25.9-8.9c-9.4-3.4-15.1-11.6-14.8-20.9
		c0.2-9.2,5.9-16.5,15.5-19.7c1.4,1,2.2,2.4,2.9,4c4.3,9.4,11.7,15.5,20.6,20.2c22.7,12.1,45.3,24.5,68,36.7
		C141.6,164.4,144.5,165.3,145.8,168.1z"/>
	<path d="M51.7,305.3c-13.5-0.1-21.7-9.4-25.4-22.2c-2.9-9.9,2.4-20.1,12.4-25.2c6.8-3.5,13.6-6.9,20.5-10.3
		c11.6-5.6,23.6-2.1,30.2,8.9c6.8,11.3,4.6,23.8-6,31.4c-6.3,4.6-12.9,8.9-19.3,13.3C60,303.9,55.5,305.5,51.7,305.3z"/>
	<path d="M113.4,284.9c15.3,0.2,30.2,16.1,21.7,33.7c-3.3,6.7-6.3,13.5-9.6,20.2c-6.5,13.2-19.8,17.3-32.7,10.3
		c-13-7-18.6-17.6-13.9-28.8c4.5-10.9,11.6-20.5,19.3-29.5C101.8,286.4,107.4,284.8,113.4,284.9z"/>
	<path d="M41.6,186c4.4,0.3,10.9,0.6,17.4,1.1c12.3,0.9,20.9,10.6,20.9,23.6c0,12.7-8.4,22.4-20.5,23.4c-8.3,0.7-16.6,1.6-24.9,1.9
		c-12.1,0.4-21.4-7.5-23.4-19.4c-2.4-14.5,3.7-26,15.5-29.9C31,185.3,35.3,185.8,41.6,186z"/>
	<path class="st35" d="M145.8,168.1c-26-14-52.1-27.9-78-42.1c-9.5-5.3-16.7-13-20.1-23.7c8.6-2.8,16-0.7,22.7,5
		c4.7,4,9.7,3.5,12.3-1.1c2.1-3.8,0.6-6.9-1.9-9.9c-8.1-9.8-8-22.1,0.1-30.9c8.2-8.9,21.5-10.1,31.2-2.8c1.6,1.2,3.1,2.7,4.8,3.4
		c3.5,1.4,6.7,0.5,8.8-2.6c2.2-3.3,1.8-6.7-0.9-9.6c-5.3-5.8-7.5-12.4-6.2-20.2c1.6-9.6,9.3-17.3,18.5-18.4
		c9.8-1.2,19.2,4.5,22.7,14.3c7.5,21.1,14.7,42.4,22,63.6c3,8.8,6,17.6,9.1,26.4c0.7,1.9,0.9,3.2-0.7,4.9
		C175.4,138.8,160.6,153.4,145.8,168.1z"/>
	<path class="st35" d="M129.9,399.9c5,4.9,10.1,9.6,14.9,14.7c4.6,4.8,4.6,11.3-0.1,16.1c-20.9,21.1-41.8,42-62.9,62.9
		c-4.8,4.8-11.2,4.6-16.1-0.1c-5.2-4.9-10-10.2-15-15.3c-0.9-5.1,2.3-8.5,5.4-11.6c10.9-11.2,22.1-22.2,33.1-33.2
		c9.8-9.8,19.5-19.6,29.3-29.3C121.6,401.1,124.9,398.2,129.9,399.9z"/>
	<path class="st8" d="M366.8,162.2c-0.9,0.9-1.5,1.6-2.2,2.3c-10.1,10.1-20.3,20.2-30.3,30.4c-1.6,1.7-2.6,2.3-4.7,0.3
		c-10.1-10.3-20.4-20.6-30.7-30.7c-2-2-1.6-3,0.2-4.7c10.2-10,20.3-20.2,30.4-30.3c1.7-1.7,2.6-2.3,4.7-0.3
		c10.1,10.4,20.4,20.5,30.6,30.8C365.4,160.6,366,161.3,366.8,162.2z"/>
	<path class="st8" d="M412.4,207.7c-0.8,0.9-1.5,1.7-2.2,2.4c-10.1,10.1-20.3,20.2-30.3,30.4c-2.1,2.1-3.1,1.8-5-0.1
		c-9.9-10.1-19.9-20.1-30-30c-1.8-1.8-2.4-2.9-0.2-5c10.2-10,20.3-20.1,30.4-30.3c1.6-1.7,2.6-2.3,4.7-0.3
		c10.1,10.3,20.4,20.5,30.7,30.7C411.1,206.3,411.7,207,412.4,207.7z"/>
	<path class="st8" d="M286.2,243.1c-11.3-11.3-22.3-22.4-33.4-33.4c-1.8-1.7-1-2.6,0.3-4c10.4-10.3,20.8-20.7,31-31.1
		c1.5-1.5,2.4-1.5,3.9,0c10.3,10.4,20.6,20.8,31.1,31.1c1.7,1.7,1.7,2.6,0,4.3C308.2,220.9,297.3,231.9,286.2,243.1z"/>
	<path class="st8" d="M296.4,253.5c11.3-11.2,22.4-22.2,33.5-33.2c1.7-1.7,2.6-1.2,4,0.2c10.3,10.4,20.6,20.8,31.1,31
		c1.9,1.9,1.3,2.7-0.2,4.2c-10.3,10.2-20.5,20.4-30.7,30.7c-1.6,1.6-2.6,1.9-4.4,0.1C318.8,275.6,307.8,264.8,296.4,253.5z"/>
	<path class="st8" d="M447.5,245.5c0.1-0.2-0.2,0.6-0.5,1.4c-4.7,14.4-12.1,27.2-21.7,38.9c-1.8,2.2-2.8,2.4-4.9,0.3
		c-9.9-10.1-19.9-20.1-30-30c-2-2-1.9-3.1,0-5c10.2-10,20.3-20.2,30.3-30.3c1.4-1.5,2.4-2.3,4.3-0.3c6.9,7.2,14.1,14.2,21.1,21.2
		C447.2,242.4,448.2,243.1,447.5,245.5z"/>
	<path class="st8" d="M295.2,91.8c1.4-0.3,2.1,0.7,2.9,1.5c7,6.9,13.8,14,20.9,20.8c2,1.9,1.7,2.9-0.1,4.7
		c-10.2,10-20.3,20.1-30.3,30.4c-2.1,2.1-3.1,1.8-5-0.1c-9.9-10.1-20-20-30-30c-1.3-1.3-2.7-2.2-0.4-4.2
		c12.1-10.2,25.6-17.7,40.6-22.7C294.2,92,294.7,91.9,295.2,91.8z"/>
	<path class="st8" d="M412.2,299.1c-0.9,0.9-1.6,1.6-2.4,2.2c-11.9,9.9-25.1,17.2-39.8,22.1c-2.1,0.7-3.3,0.2-4.7-1.2
		c-6.9-7-13.8-14-20.8-20.8c-1.8-1.7-1.7-2.6,0-4.3c10.4-10.3,20.8-20.6,31-31c1.6-1.6,2.5-1.5,4,0c10.3,10.4,20.7,20.7,31,31.1
		C411,297.7,411.5,298.3,412.2,299.1z"/>
	<path class="st8" d="M241,287.9c-1.4,0-1.8-1.1-2.4-1.8c-10-12-17.5-25.4-22.4-40.2c-0.6-1.9-0.4-3,1-4.3
		c7.1-7,14.2-14.1,21.1-21.2c1.5-1.5,2.4-1.6,4,0c10.4,10.5,20.9,21,31.4,31.4c1.3,1.3,1.5,2.1,0.1,3.5
		c-10.5,10.4-21,20.9-31.4,31.4C242,287.1,241.5,287.5,241,287.9z"/>
	<path class="st8" d="M321,299.3c-0.8,0.9-1.5,1.6-2.1,2.3c-6.8,6.8-13.7,13.6-20.5,20.5c-1.4,1.4-2.4,2.1-4.7,1.4
		c-14.9-4.9-28.2-12.5-40.2-22.4c-1.9-1.6-1.9-2.5-0.2-4.2c10.3-10.2,20.5-20.4,30.7-30.7c1.3-1.3,2.1-2,3.9-0.3
		c10.4,10.6,20.9,21,31.4,31.5C319.9,297.9,320.4,298.5,321,299.3z"/>
	<path class="st8" d="M368.9,91.9c0.4,0.1,1.2,0.3,2,0.6c14.3,4.9,27.3,12.1,38.9,21.8c2.1,1.7,2.5,2.7,0.3,4.8
		c-10.1,9.9-20.1,19.9-30,30c-1.9,2-3,2.2-5.1,0.1c-10-10.2-20.2-20.3-30.3-30.4c-1.4-1.4-2.5-2.3-0.4-4.2
		c7.2-6.9,14.2-14.1,21.3-21.1C366.3,92.5,367,91.5,368.9,91.9z"/>
	<path class="st8" d="M423.3,197.5c-11.2-11.3-22.1-22.3-33.1-33.2c-1.7-1.7-1.6-2.7,0-4.4c10.3-10.2,20.6-20.4,30.7-30.7
		c1.7-1.7,2.5-1.6,4.1,0.3c9.9,11.9,17.3,25.2,22.3,39.8c0.7,1.9,0.6,3.3-1,4.9C438.7,181.8,431.1,189.5,423.3,197.5z"/>
	<path class="st36" d="M464.6,174c4.6,9.2,6.5,19.1,7.9,29.1c3,21.1,0.5,41.7-6.7,61.7c-5.8,16.1-14.7,30.4-26.3,43.1
		C420,329.1,396,342,367.7,347.5c-22.2,4.3-43.8,2-65.1-4.7c-1.1-0.3-1.9-1.2-2.9-1.8c12.8,2.3,25.6,3.8,38.6,3.2
		c60.1-2.4,112.8-45.9,126.4-104.5c4.9-20.9,5.1-41.8,0.2-62.8C464.7,176,464.7,175,464.6,174z"/>
	<path class="st37" d="M162.7,173.1c12-12.1,24-24.3,36-36.4c1-1.1,1.7-1.6,3.2-0.4c21.5,17.9,17.4,42.3,3.5,54.7
		c-0.5,0.4-1.1,0.7-1.6,1.1c-6.1,2.5-12.2,1.4-18.1-0.3c-8.7-2.5-16-7.3-21.8-14.3C162.9,176.3,161.5,175,162.7,173.1z"/>
	<path class="st8" d="M240.3,197.1c-0.7-0.7-1.3-1.3-1.9-1.8c-7.7-5.8-11.3-12.1-7.5-22.5c2.9-7.7,0.9-16.5-2.3-24.4
		c-1-2.4-1-4.3,0.6-6.4c3.2-4,6.2-8.2,9.2-12.4c1.4-2,2.5-2.1,4.2-0.3c10.2,10.3,20.4,20.5,30.7,30.7c1.4,1.3,2,2.3,0.3,4
		c-10.1,9.9-20,20-30,30C242.6,195,241.5,196,240.3,197.1z"/>
	<path class="st34" d="M129.9,399.9c-4.5,0.4-8.1,2.4-11.3,5.6c-20.4,20.5-40.8,40.9-61.3,61.3c-3.3,3.3-5.5,7-6.7,11.4
		c-1-0.9-2-1.7-3-2.6c-6.8-6.8-6.9-12.7-0.2-19.4c8.7-8.8,17.4-17.4,26.1-26.1c10.5-10.5,21-21,31.4-31.4
		C115.1,388.5,120.3,388.8,129.9,399.9z"/>
	<path class="st36" d="M386.7,56c-7-0.2-13.6-2.3-20.5-3.2c-14.4-1.9-28.6-1.6-43,0c-13.6,1.6-26.7,5-39.4,9.7
		c-19.7,7.3-36.9,18.5-52.7,32.3c-8.7,7.7-15.7,17-23.7,25.3c-1.9-2.6-2.2-5.9-3.5-8.7c-0.9-1.9,0.2-3.1,1.3-4.5
		c26.4-32.4,60.2-52.3,101.6-58.9c25.6-4.1,50.7-1.9,75.4,6C383.8,54.6,385.2,55.4,386.7,56z"/>
	<path class="st36" d="M182.7,272c3.9,7.6,6.2,15.8,6.9,24.2c1.2,14.6,0.6,29.1-4.8,43.1c-4.7,12.2-11.1,23.4-20.4,32.7
		c-5.5,5.5-11.1,11.1-16.6,16.6c-1.3,1.3-3,2.3-3,4.4c-8.4-7.2-8.5-7.3-0.7-15c11.1-11,22.3-22,29.4-36.2
		c10.7-21.2,14-43.4,9.5-66.8C182.8,274,182.8,273,182.7,272z"/>
	<path class="st38" d="M162.7,173.1c5.8,9.7,14.6,15,25.2,17.9c5.2,1.4,10.6,0.8,15.9,1c-12.6,10.7-31.3,10.2-44.1-1.2
		c-7.9-7.1-7.9-7.1-0.6-14.4C160.3,175.3,161.5,174.2,162.7,173.1z"/>
	<path class="st15" d="M451.7,189.3c2.5,11.4,2.4,27.1,0,36.5c-5.7-5.8-11.2-11.3-16.6-16.8c-0.9-0.9-0.8-1.6,0-2.5
		C440.5,201,445.8,195.4,451.7,189.3z"/>
	<path class="st15" d="M313.4,328.1c6.2-6.1,11.5-11.3,16.7-16.6c1.1-1.1,1.9-1.5,3.2-0.2c5.4,5.3,11,10.6,17.3,16.6
		C337.7,329.9,326.1,329.7,313.4,328.1z"/>
	<path class="st15" d="M313.3,87.6c12.8-2,24.3-2,37.2,0c-6.3,6.1-11.9,11.6-17.6,17.1c-1.3,1.3-2.1,0.1-2.9-0.7
		C324.7,98.8,319.4,93.6,313.3,87.6z"/>
	<path class="st15" d="M211.9,226.8c-1.5-7.3-1.5-12.9-1.7-18.6c-0.1-1.2,8.9-10.3,9.7-9.9c1.3,0.7,2.3,1.8,3.4,2.8
		c6.6,6.5,6.6,6.5,0.2,13C219.8,218,216.3,222,211.9,226.8z"/>
	<path class="st39" d="M179,214.9c-3.1-0.1-3.2,1.8-3.3,4.3c-0.4,12.9,0.8,25.7,3.7,38.3c0.3,1.3,0.2,2.6,0.3,3.9
		c-5.8-14.4-8.3-29.6-9.1-45c-0.1-2,0.1-3.3,2.6-2.5C175,214.4,177.1,213.8,179,214.9z"/>
	<path class="st40" d="M50.8,290.3c-4.1-0.1-8.4-4.3-9.8-10c-1.1-4.4,0.9-7.3,4.8-9.3c6.5-3.3,13-6.6,19.6-9.8
		c5-2.4,8.7-1.3,11.4,3.4c2.6,4.4,1.9,8.2-2.4,11.3c-6.1,4.3-12.3,8.5-18.5,12.7C54.3,289.7,52.7,290.4,50.8,290.3z"/>
	<path class="st41" d="M122.6,308.8c-0.3,0.9-0.6,2.3-1.3,3.7c-3.1,6.6-6.2,13.2-9.5,19.8c-3,6.1-6.7,6.8-13.6,2.9
		c-6.3-3.6-7.5-7.4-4-13c4-6.3,8.2-12.5,12.4-18.7c2.2-3.3,5.4-4.5,9.1-3.1C119.5,301.8,122.3,304,122.6,308.8z"/>
	<path class="st41" d="M40.2,200.9c5.8,0.4,11.6,0.7,17.4,1.1c4.8,0.4,7.3,3.3,7.4,8.3c0.1,5.4-2.2,8.3-7.3,8.8
		c-7.3,0.7-14.6,1.4-21.8,1.8c-7.2,0.4-9.8-2.5-9.9-10.3c0-7.4,2.6-10,9.8-9.8C37.2,200.9,38.7,201,40.2,200.9
		C40.2,201,40.2,201,40.2,200.9z"/>
</g>
</svg>
