<?xml version="1.0" encoding="utf-8"?>
<!-- Generator: Adobe Illustrator 26.0.3, SVG Export Plug-In . SVG Version: 6.00 Build 0)  -->
<svg version="1.1" id="Capa_1" xmlns="http://www.w3.org/2000/svg" xmlns:xlink="http://www.w3.org/1999/xlink" x="0px" y="0px"
	 viewBox="0 0 512 512" style="enable-background:new 0 0 512 512;" xml:space="preserve">
<style type="text/css">
	.st0{fill:#AEB7C9;}
	.st1{fill:#D3A068;}
	.st2{fill:#FCD768;}
	.st3{fill:#B27941;}
	.st4{fill:#788599;}
	.st5{fill:#D2A067;}
	.st6{fill:#8B94A4;}
	.st7{fill:#F8F8F8;}
	.st8{fill:#FCFCFC;}
	.st9{fill:#AD7844;}
	.st10{fill:#B17840;}
	.st11{fill:#AE7640;}
	.st12{fill:#AD753F;}
	.st13{fill:#010101;}
</style>
<path d="M117.8,511c18.6-45.4,37.2-90.7,55.8-136.1c5.4-13.2,10.8-26.4,16.1-39.6c0.7-1.7,3.4-4.3-1.4-4.7c-1.2-0.1-0.7-2-0.7-3.1
	c0-14.1,0.1-28.3-0.1-42.4c0-2.9,0.9-3.6,3.7-3.6c8.5,0.2,17-0.1,25.4,0.1c3.1,0.1,4.1-0.8,3.9-3.9c-0.3-3.9-0.1-7.9-0.1-12.9
	c-5.3,3.2-10.2,5.8-14.7,9c-3.1,2.2-5.2,2.1-6.8-1.4c-1.7-3.8-3.5-3.8-6.9-1.4c-21,14.8-42.2,29.4-63.5,43.9c-3,2.1-3.9,3.3-1.4,6.7
	c6.5,8.9,6.3,9-2.6,15.3c-9.4,6.6-18.8,13.1-28.1,19.8c-2,1.4-3,1.7-4.6-0.7c-20.3-29.4-40.7-58.7-61.2-87.9
	c-1.5-2.2-1.3-3.1,0.8-4.6c11.6-8,23.2-16.1,34.6-24.4c2.2-1.6,3.1-1,4.5,0.9c4.9,6.8,4.9,6.8,11.8,1.9
	c19.9-14.2,39.7-28.4,59.7-42.4c3.5-2.5,3.7-4.2,1-7.1c-1.9-2.1-3.1-4.8-5-6.8c-2.7-3-1.8-4.6,1.1-6.9
	c43.2-33.2,86.2-66.6,129.3-99.9c15-11.6,29.9-23.3,45-34.7c2.8-2.1,3.1-3.4,0.9-6.2c-2.6-3.2-6.8-7.2-6.2-10.2c0.5-3,6-5.1,9.3-7.5
	c8.5-6.1,17.1-12.1,25.5-18.2c2.1-1.5,3.1-1.9,4.9,0.7c31.5,45.9,63,91.6,94.7,137.4c1.4,2.1,1.4,3.1-0.8,4.6
	c-11.3,7.9-22.5,15.9-33.7,23.9c-1.9,1.4-3.1,1.5-4.2-0.7c-0.3-0.6-0.7-1.1-1.1-1.6c-6.3-9.1-6.3-9.1-15.6-3.5
	c-27,16.5-54,33.1-81.1,49.5c-3,1.8-4,3.7-4,7.1c0.2,19.3,0.2,38.6,0,57.9c0,3.4,0.7,4.6,4.3,4.4c8.1-0.3,16.3,0,24.4-0.2
	c2.9-0.1,4.1,0.6,4,3.8c-0.2,14-0.1,27.9-0.1,41.9c0,1,0,2.7-0.4,2.8c-6,1.8-1.9,5.2-1,7.4c23.3,57.4,46.8,114.7,70.3,172.1
	c0.2,0.5,0.3,0.9,0.4,1.4c-17,0-33.9,0-50.9,0c-3.4-4-4.7-9.1-6.6-13.9c-7.9-19.6-16.1-39-23.9-58.6c-3.2-7.9-3.2-7.9-11.6-7.9
	c-6.1,0-12.3-0.1-18.4,0c-5.2,0.1-5.7,0.6-5.7,5.8c-0.1,16.1,0,32.2,0,48.4c0,1.7,0,3.3,0,5c-0.2,5.6-1.2,6.6-6.9,6.7
	c-12.6,0.1-25.3,0.1-37.9,0c-5.8-0.1-6.9-1.1-6.9-7.1c-0.1-17.3,0-34.6-0.1-51.9c0-6.5-0.3-6.8-6.7-6.8c-6.5,0-13,0.2-19.4-0.1
	c-4.6-0.2-6.9,1.7-8.5,5.8c-9.1,22.7-18.5,45.2-27.6,67.9c-1,2.5-1.8,5-4.1,6.7C151.7,511,134.8,511,117.8,511z"/>
<path class="st0" d="M379,148.6c-56.4,34.5-112.9,69-169.3,103.6c-2.9,1.8-4.2,1.6-6.2-1.3c-14.4-20.9-29-41.7-43.6-62.4
	c-1.4-2-2.4-3.3,0.4-5.4c52.8-40.6,105.4-81.3,158.1-122c3.3-1.3,4.3,1.5,5.6,3.4c6.2,9.2,12.7,18.3,18.9,27.5
	c11.4,16.7,23,33.3,34.4,50.1C378.6,143.9,381,145.8,379,148.6z"/>
<path class="st0" d="M181.6,258.4c-21.4,14.8-42.8,29.7-64.2,44.5c-1.7,1.2-2.6,1.3-3.8-0.6c-9.1-13.3-18.3-26.5-27.6-39.6
	c-2-2.9,0.4-3.4,1.8-4.4c12.1-8.7,24.3-17.4,36.5-26c8.4-5.9,16.8-11.8,25.2-17.8c2.7-1.1,4,0.8,5.2,2.5
	c8.6,12.5,17.5,24.8,26.1,37.4C181.6,255.6,182.9,256.7,181.6,258.4z"/>
<path class="st1" d="M220.6,339.4c-8.8,21.8-17.6,43.6-26.4,65.4c-11.4,27.9-23,55.8-34.1,83.8c-1.9,4.7-4,6.6-9.3,6.3
	c-8.4-0.5-8.4-0.1-5.3-7.7c20.1-49.2,40.3-98.4,60.4-147.7C210.7,337.1,215.6,337,220.6,339.4z"/>
<path class="st1" d="M316.2,339.4c14.7,35.7,29.3,71.5,44,107.2c6,14.6,11.9,29.2,18,43.7c1.5,3.5,1,4.5-2.9,4.5
	c-10.3-0.1-10.3,0.1-14.1-9.3c-19.3-47.3-38.6-94.5-58-141.8c-0.3-0.8-0.5-1.6-0.8-2.3c-0.9-2.4,0.8-3,2.4-3.2
	C308.6,337.8,312.6,337,316.2,339.4z"/>
<path class="st2" d="M376,112.9c6.2-5,6.2-5,1.6-11.7c-15.2-22-30.2-44-45.5-65.9c-2-2.9-2-4.3,1.1-6.1c3-1.7,5.7-3.9,8.7-6.1
	c14.6,21.2,29.1,42.2,43.6,63.3c11.3,16.4,22.5,32.8,34,49.1c1.9,2.6,1.8,3.9-1,5.8c-8.9,6.2-8.8,6.3-15-2.6
	c-3-4.4-6.3-8.6-8.9-13.2c-2.1-3.8-4.1-4-7-1.1c-0.7,0.7-1.7,1-2.5,1.5C379.8,123.1,377.3,118.4,376,112.9z"/>
<path class="st3" d="M284.6,225.6c1.3,1.4,0.9,2.6,0.9,3.7c0,15.9-0.1,31.9,0.1,47.8c0,3.3-0.6,4.7-4.3,4.6
	c-13.6-0.2-27.2-0.2-40.8,0c-3,0-4.3-0.9-3.9-3.9c0-0.2,0-0.3,0-0.5c0.1-7.3-2.1-15.7,0.8-21.6c2.9-6,11.6-8.2,17.8-12
	C264.9,237.5,274.8,231.6,284.6,225.6z"/>
<path class="st1" d="M260.9,314.5c-17.6,0-35.2-0.1-52.8,0.1c-3.4,0-4.5-0.7-4.5-4.3c0.1-12-0.1-12,11.8-12
	c32.7,0,65.4,0.1,98.1-0.1c3.8,0,5,0.9,5,4.9c-0.2,11.4,0,11.4-11.2,11.4C291.7,314.5,276.3,314.5,260.9,314.5z"/>
<path class="st2" d="M64.5,260.5c11.9,17,23.6,33.9,35.3,50.7c2.9,4.2,5.8,8.5,8.8,12.6c1.4,1.9,1.6,3-0.6,4.7
	c-10.2,7.7-10.1,7.8-17.4-2.8c-12.2-17.6-24.4-35.1-36.7-52.6c-2-2.8-2.1-4.3,1-6.1C58.2,265.3,61.2,262.9,64.5,260.5z"/>
<path class="st4" d="M376,112.9c2.7,4.5,5.6,9,8.9,13.1c-6.6,5.2-6.6,5.2-3,10.3c5.2,7.5,5.2,7.5-2.8,12.3c-0.3-4.6-3.8-7.6-6.2-11
	c-16.7-24.5-33.6-48.8-50.4-73.2c-1-1.5-1.8-3.2-4-3.3c7.4-6.1,7.4-6.1,12.8,1.7c11.4,16.5,22.9,33,34.1,49.7c2.7,4,4.8,5.4,8.5,1.6
	C374.4,113.5,375.3,113.3,376,112.9z"/>
<path class="st5" d="M269.3,454.2c0,6.8-0.1,13.6,0.1,20.4c0.1,2.8-0.8,3.6-3.6,3.7c-12.9,0.3-12.9,0.4-12.9-12.3
	c0-11,0.1-21.9-0.1-32.9c-0.1-3.1,0.9-3.9,4-3.9c12.6-0.1,12.6-0.3,12.6,12.6C269.3,445.8,269.3,450,269.3,454.2z"/>
<path class="st6" d="M181.6,258.4c-6.7-11.3-15-21.7-22.3-32.6c-1.8-2.7-3.8-5.4-5.6-8.2c-1-1.6-2.2-2.9-4.2-3.1
	c5.6-4.4,5.6-4.5,9.6,1.3c8.1,11.6,16,23.3,24.4,34.6C186.5,254.5,185.9,256.6,181.6,258.4z"/>
<path class="st7" d="M300.2,379.9c-14.6,0.8-14.6,0.8-14.6-13c0-6.8,0-13.5,0-20.3c0.3-0.1,0.6-0.2,0.9-0.3
	C290.9,357.4,295.4,368.4,300.2,379.9z"/>
<path class="st8" d="M221.9,380.1c4.8-11.8,9.3-22.7,13.7-33.7c0.3,0,0.6,0,0.8,0.1c0,10.6,0,21.2,0,31.8c0,2-1.4,1.8-2.8,1.8
	C230.1,380.1,226.5,380.1,221.9,380.1z"/>
<path class="st9" d="M269.4,355.6c0,7-0.1,13.9,0.1,20.9c0.1,3.1-1,3.9-4,3.9c-12.9,0.2-12.9,0.3-12.9-12.4c0-10.8,0.2-21.5,0-32.3
	c-0.1-3.5,0.7-5,4.6-4.9c12.1,0,12.1-0.1,12.1,11.9C269.5,346.9,269.5,351.2,269.4,355.6z"/>
<path class="st10" d="M298.3,396.5c8.4-0.3,8.4-0.3,12.4,9.3c2.9,7,2.9,7.1-4.6,7.1c-31.2,0-62.4,0-93.6-0.1c-0.9,0-3.7,1.9-3.1-1.6
	c2.8-0.7,5.7-0.3,8.5-0.4c25.3-0.2,50.7,0,76-0.1c1.5,0,3,0,4.5-0.1c2.5-0.1,3.1-1.4,2.3-3.6c-1-3-2.6-5.7-3-8.9
	C297.7,397.5,297.9,396.9,298.3,396.5z"/>
<path class="st10" d="M298.3,396.5c0,0.3,0,0.6,0,0.8c-2.2,2.1-5,1.5-7.6,1.5c-19.6,0.1-39.2,0.2-58.8-0.1c-5.2-0.1-8.6,1.4-10,6.6
	c-0.7,2.5-1.9,5-4.1,6.7c-2.8-0.2-5.7,1.2-8.2-0.9c1.6-4.2,3.3-8.3,4.8-12.5c0.7-2,2-2.4,3.8-2.4
	C244.9,396.4,271.6,396.4,298.3,396.5z"/>
<path class="st11" d="M316.2,339.4c-3.4,0-6.8-0.1-10.2-0.1c-1.6,0-3.4-0.3-3.7,2c-5.4-10.8-5.4-10.4,6-10.8
	C315.1,330.5,314.3,335.9,316.2,339.4z"/>
<path class="st12" d="M220.6,339.4c-4.9,0-9.8,0.1-14.7,0.1c0.1-0.3,0.2-0.6,0.3-0.9c3-7.4,8-9.9,15.8-7.8c2,0.5,1.8,1.6,1.2,2.9
	C222.4,335.6,221.4,337.5,220.6,339.4z"/>
<path d="M193.1,197.7c-1.5,0.1-1.8-1-2.4-1.7c-8.9-10.1-8.9-10.1,1.6-18.3c20.5-15.9,41-31.7,61.5-47.6c2.8-2.2,4.5-2.8,6.5,0.7
	c2,3.4,6.9,6.3,6.2,9.6c-0.6,2.9-5.5,4.9-8.5,7.2c-20.6,16-41.2,31.9-61.9,47.9C195.1,196.2,194,197,193.1,197.7z"/>
<path class="st13" d="M290.1,121.6c0.3,1.3-0.7,1.5-1.2,2.1c-9.1,8.8-9.3,8.6-17.3-1.4c-2.5-3.1-2.1-4.6,1-6.8
	c8.2-6,8.1-6.2,14.4,1.9C288,118.8,289.1,120.3,290.1,121.6z"/>
<path class="st5" d="M268.5,359.2c0,5.5-0.1,11,0,16.4c0.1,2.8-1,3.7-3.7,3.8c-11.2,0.4-11.2,0.5-11.2-10.6c0-8.5,0.1-16.9-0.1-25.4
	c-0.1-3,0.9-4,4-4c11-0.2,11-0.4,11,10.4C268.5,352.9,268.5,356,268.5,359.2z"/>
<path class="st5" d="M217.8,412.1c1.6-4.3,3.3-8.6,4.9-12.9c1-2.5,3.2-2,5.1-2c23.5,0,47,0,70.5,0c1.4,3.4,2.5,6.9,4.2,10.1
	c2.6,4.7,0.4,4.9-3.6,4.9c-12.6-0.2-25.2-0.1-37.9-0.1C246.7,412.2,232.2,412.1,217.8,412.1z"/>
</svg>
