<?xml version="1.0" encoding="utf-8"?>
<!-- Generator: Adobe Illustrator 26.0.3, SVG Export Plug-In . SVG Version: 6.00 Build 0)  -->
<svg version="1.1" id="Capa_1" xmlns="http://www.w3.org/2000/svg" xmlns:xlink="http://www.w3.org/1999/xlink" x="0px" y="0px"
	 viewBox="0 0 512 512" style="enable-background:new 0 0 512 512;" xml:space="preserve">
<style type="text/css">
	.st0{fill:#3C86CF;}
	.st1{fill:#444444;}
	.st2{fill:#FECDBE;}
	.st3{fill:#D67E4A;}
	.st4{fill:#5A5A5A;}
	.st5{fill:#EF7280;}
	.st6{fill:#EA5569;}
	.st7{fill:#C76D36;}
	.st8{fill:#FEFEFE;}
	.st9{fill:#0078C7;}
	.st10{fill:#FEAF9D;}
	.st11{fill:#FEA68E;}
	.st12{fill:#FDA68E;}
	.st13{fill:#FD8F83;}
	.st14{fill:#FD8E82;}
	.st15{fill:#FDFDFD;}
	.st16{fill:#FCAE9C;}
	.st17{fill:#010101;}
	.st18{fill:#010000;}
</style>
<path d="M-1,235.5c2.9-8.5,5.9-17.4,13.8-22.3c6.5-4,6.7-8.1,5.3-14.8c-5.3-25.1-5.6-50.6-4.9-76.1c0.2-7.2,4.4-10,11.4-7.9
	c5.7,1.7,11.5,3.4,17.1,5.3c2.8,1,4.6,0.3,6.4-2.1C64.7,95.3,87.1,84,114.9,82.2c19.7-1.3,39.2-1.7,58.2,5.2
	c39.9,14.5,66.2,50.7,67.1,93.1c0.2,9.3,0.1,18.7,0.1,28c0,1.6-0.2,3.2,1.4,4.5c7.7,6.4,11.9,14.9,13.6,24.9c3.4-4.6,5.2-8.8,5-14.8
	c-0.8-17.1-1-34.2,4.7-50.9c13.5-40,50.6-67.6,92.9-67.9c6.6,0,13.1,0.1,19.7,0.1c29,0,53.2,11.3,72.9,32.6
	c3.4,3.7,4.1,7.5,0.6,11.5c-2.7,3.5-5.9,4.1-9.8,1.8c-2.6-1.6-4.5-3.9-6.6-6c-12.6-12.4-27.5-20.2-45-22.7c-2.5-0.6-5-0.5-7.5-0.7
	c-3.1-0.2-5.2,0.9-7.1,3.6c-4.3,6-10.6,5.9-14.7-0.2c-1.9-2.9-4.2-3.4-7.2-3.3c-15.2,0.8-29.1,5.8-41.3,14.7
	c-25.9,18.7-37,44.5-35.4,76.2c0.2,3.2,1.5,4.4,4.6,4.4c14.2-0.1,28.3,0.5,42.5-0.2c19.1-0.9,34-16.2,35.2-35.1c0.1-2,0.3-4,1.2-5.8
	c1.8-3.6,4.7-5.6,8.8-5.4c3.7,0.2,6.9,3.4,7.6,7.5c0.6,3.6,0.9,7.3,1.9,10.8c4.6,16.7,19,27.9,36.4,28.2c8.3,0.1,16.7,0,25,0
	c5-0.2,10-0.2,15,0c3.6,0.1,5-1.4,5-5c0.3-10.7-0.8-21.3-3.7-31.6c-0.7-2.4-1.5-4.8-1.1-7.3c0.5-3.1,1.5-5.9,5.5-5.8
	c5.8-1.3,8.8,0.3,10.6,5.9c3.3,9.9,5,20,5,30.4c0,8.6,1.2,17.3-0.8,25.8c-0.4,1.6,0.9,2.4,1.6,3.4c6.9,10,8.5,20.8,4.4,32.3
	c-0.8,2.3-0.5,3.3,1.6,4.6c18.9,11.5,28.3,28.4,28.3,50.6c0,14,0,28,0,42c0,6.8-2.5,9.4-9.3,9.4c-11.8,0-23.6,0.9-35.8-3.9
	c4.5,6.7,7,13.2,7.1,20.1c0.3,22.3,0.3,44.7,0.2,67c0,5.3-2.9,7.7-8.8,7.7c-16.8,0-33.7,0-50.5,0c-46.7,0-93.3,0-140,0
	c-9.2,0-10.9-1.8-10.9-11.1c0-17.2,0.2-34.3-0.1-51.5c-0.1-10.8,0.4-21.3,6.2-31.4c-10.4,3.6-21,3.2-31.1,3.1
	c4.5,27.7,1.4,55.5,2.2,83.2c0.2,5.6-2.4,7.7-8.6,7.7c-16.7,0.1-33.3,0-50,0c-36.5,0-73,0-109.5,0c-3,0-6,0-8.4-2.3
	c-4.3-4.1-3.7-9.7,1.4-12.8c2.2-1.3,4.7-1.7,7.2-1.7c44.7,0,89.3-0.2,134,0.1c4.1,0,8.3-0.1,12.4,0c3.3,0.1,4.9-1.1,4.9-4.6
	c-0.1-18.3,0.4-36.6-0.2-54.8c-0.4-14.4-13.1-26.6-28-27.6c-2.3-0.2-4.6-0.2-7-0.1c-3.5,0-7,0.1-10.5-0.1c-3.8-0.2-5.7,1.2-6.8,4.9
	c-3.9,12.6-12,21.7-23.7,27.6c-24.4,12.3-54.3,0.1-63.8-26.2c-2.3-6.2-2.3-6.2-8.8-6.3c-4.2,0-8.3,0-12.5,0
	c-18.1,0.2-31.4,12.9-31.8,31c-0.4,17.1,0,34.3-0.1,51.4c0,3.4,1.5,4.5,4.5,5.2c6.5,1.5,9.5,6.8,7.2,11.7c-0.4,1-1.1,1.6-2.1,2
	c-6.8,4.3-14.2,2.5-21.3,1.6c-3-0.4-4.5-3.5-4.5-6.5c0.3-24.3-1.6-48.7,0.8-72.9c2.2-21.9,21.9-39.1,43.9-39.8
	c5.5-0.2,10.9,0,17.8,0c-2.2-1.6-3.3-2.3-4.5-3.1C52.7,325,39.7,306.8,33.2,284c-0.8-2.9-1.9-4.1-5-5c-13.7-3.5-23-12.1-27.5-25.7
	c-0.4-1.3,0-3.1-1.7-3.9C-1,244.8-1,240.2-1,235.5z"/>
<path class="st0" d="M207,446.4c-23.3,0.1-46.6,0.1-69.8,0.2c-22,0-43.9,0-65.9,0c-8.6,0-11.7,5.2-7.8,12.7
	c-7.9,0-15.7-0.1-23.6-0.1c3.5-7.7,0.9-12-7.7-12.6c-2.8-0.2-3.2-1.2-3.2-3.6c0.1-18.5-0.3-37,0.2-55.4
	c0.4-17.6,14.3-30.9,31.9-31.2c6-0.1,12,0.1,18-0.1c2.8-0.1,4,0.7,4.8,3.5c5.6,20.5,22.6,33.7,42.9,33.7c20.8,0.1,38-12.9,43.6-33.5
	c0.9-3.2,2.2-3.9,5.1-3.7c4.1,0.2,8.3,0.2,12.5,0.2c7.3,1.8,11.1,7.6,14.7,13.4c4,6.5,5.9,13.6,5.8,21.4c-0.2,16,0,31.9-0.1,47.9
	C208.4,441.7,208.8,444.3,207,446.4z"/>
<path class="st1" d="M460.2,166.3c-4.5,2.4-5.1,6.1-3.6,10.6c4,12,4.6,24.3,4.4,36.8c-0.1,2.7-0.7,3.9-3.7,3.8
	c-6.1-0.2-12.3-0.2-18.4-0.2c-1.7-2-1.2-4.4-1.2-6.7c-0.2-7.5-0.6-15-1.8-22.3c-4.4-26.7-18.3-47.3-40.4-62.7
	c-2-1.4-5.1-1.9-5.4-5.2c16.3,2,30.2,9.3,42.4,20c2.5,2.2,4.7,4.7,7.1,7c3.9,3.8,6.8,4.1,11.4,1C454,154.4,457.1,160.3,460.2,166.3z
	"/>
<path class="st2" d="M38,219.5c5.2-0.9,7.3-4.1,8.2-9.2c1.9-10.4,5.8-20,11.8-28.7c1.1-0.2,1.2,0.6,1.5,1.1
	c13.1,24.5,33.7,36.4,61.2,36.5c26.1,0.1,52.2,0,78.4,0c1.3,0,2.6,0.2,4,0.2c1.5,1.6,1.6,3.6,1.6,5.6c0,12.3,0.1,24.6,0,36.9
	c0,3-0.4,6-1.6,8.8c-1.5,2.3-4,2-6.3,2.1c-4,0.1-8-0.2-11.9,0.2c-4.3,0.4-7,3.3-7,7c0,4,2.8,6.7,7.4,7c3.8,0.3,7.6-0.5,11.3,0.7
	c2.6,1.9,1.1,4.2,0.3,6.2c-4.4,11.1-11,20.7-19.7,28.8c-0.4,0.3-0.7,0.7-0.9,1.1c-37.3,28.9-96.7,19.5-122-27.4
	c-4-7.4-6.7-15.2-8.1-23.4c-0.6-3.8-2.4-6.5-6.1-7.7c-2.7-0.5-3.4-2.5-3.4-4.8c-0.2-12.3-0.2-24.6,0-36.9
	C36.5,222.1,36.9,220.6,38,219.5z"/>
<path class="st3" d="M113.7,203.6c-20.5-0.8-39.1-16.4-44.4-37.6c-1-3.8-2.1-7.1-6.3-8.1c-4.3-1-6.8,1.7-9.3,4.5
	c-4.5,5.2-8.4,10.7-11.8,16.7c-3.4,5.9-5.9,12.2-8.2,19c-3.9-10.5-7.2-52.3-5.3-66.6c5.7,1.8,11.5,3.5,17.1,5.4
	c4.7,1.6,8,0.2,10.5-4c13.6-22.6,33.7-34.1,59.9-35.6c14-0.8,27.9-1.8,41.7,1.3c0.8,0.2,1.5,0.6,2.3,0.9
	c16.9,9.5,27.4,24.4,35.1,41.6c5.9,13.1,8.1,27.1,8.3,41.3c0.1,5.7,0.1,11.3-0.1,17c-0.1,2.4-0.3,4.7-3.8,4.7
	c-28.5-0.2-57,0.2-85.4-0.2C113.5,203.8,114.4,203.7,113.7,203.6z"/>
<path class="st4" d="M390,120.5c13.2,8.2,24.8,18.1,33.2,31.4c8.9,14.1,14.3,29.2,15,46.1c0.3,6.4,0.8,12.9,0.8,19.3
	c-10.1,0.1-20.4,1.3-30.4-0.5c-19.6-3.5-31.2-16.8-33.4-37.4c-0.6-5.7-3.3-8.9-7.5-8.7c-4.5,0.1-7.3,3.6-7.6,9.4
	c-1.1,21.3-17.7,37.2-39.1,37.4c-14,0.1-28,0-42,0.1c-2.3,0-4,0.1-4.2-3.2c-1.2-22.7,3-43.8,17.3-62c16.1-20.5,37.1-31.8,63.3-33
	c2.8-0.1,4.7,0.2,5.5,3.4c0.9,3.3,3.6,4.6,6.9,4.7c3.3,0.1,5.9-1.7,6.6-4.4c0.9-4,3.3-3.9,6.2-3.7C383.8,119.6,387,119,390,120.5z"
	/>
<path class="st5" d="M433,446.4c-9.3,0.1-18.7,0.2-28,0.2c-40.7,0-81.3-0.1-122,0.1c-4.2,0-5.3-1-5.2-5.2
	c0.3-16.2,0.1-32.3,0.1-48.5c0.1-19.5,13-32.4,32.7-32.5c4,0,8,0.2,12-0.1c3.3-0.3,4.3,0.7,4.8,4.2c4.5,29.9,35.5,45.5,60.9,30.8
	c11.9-6.9,18.4-17.5,20.4-31c0.2-1.4-1.1-4.2,2.3-3.7c7.2,1.2,11.7,6.2,15.5,11.7c5,7.1,7.7,15.2,7.8,23.9
	c0.3,14.8,0.1,29.7,0.1,44.5C434.4,442.8,434.5,444.8,433,446.4z"/>
<path class="st2" d="M297.1,283.5c-0.4-1.4-0.8-2.8-1.1-4.3c-0.9-4.4-3.4-6.9-8.2-7c-1.9,0-3.9-0.6-5.8-1c-1.4-1.4-1.5-3.2-1.6-5
	c-0.1-9.2-0.1-18.4,0-27.6c0-1.8,0.2-3.6,1.6-5.1c2.1-1.3,4.5-1,6.8-1c10.8,0,21.7,0.1,32.5-0.1c20-0.4,35.2-9.6,46.2-26
	c0.4,0.2,0.8,0.2,1,0.5c12.5,18.8,30.4,26.5,52.5,25.8c2.3,4.6,2.3,9.2,0,13.8c-4.2-0.4-8.2-2.2-12.6-1.7c-5.1,0.6-6.8,1.9-7,7.1
	c-0.2,4.5-0.2,9,0,13.4c0.1,3.4,1.7,5.9,5.2,6.2c3.5,0.3,5.4-2,6.4-5.1c0.5-1.4,0.4-2.9,0.6-4.4c0.4-5.1,1.8-6.5,7.3-7.5
	c1.6,1.6,1.5,3.6,1.5,5.6c0.1,4.9,0.1,9.9,0,14.8c-0.1,6.5-1.4,7.8-7.9,8c-1.3,0-2.6,0-3.9,0.2c-3.4,1-6,2.8-6.4,6.7
	c-0.4,3.9,1.9,6.1,5.1,7.7c0.8,0.3,1.6,0.5,2.4,0.7c4.2,1,4.7,1.9,2.8,5.8c-7.1,13.9-16,26.2-30.6,33.3c-29.8,8.8-68.9-9.5-81-37.9
	c2.3-2,5-1.2,7.6-1.3c3.1-0.1,6.3,0.2,9.3-1c3.4-1.4,5.6-3.8,5-7.6c-0.6-3.6-3.1-5.4-6.7-5.5c-5.8-0.2-11.6-0.2-17.4,0.1
	C299.6,284.1,298.2,284.5,297.1,283.5z"/>
<path class="st4" d="M239.9,331c0.5-7-1.1-15.6,1.2-23.9c3.2-11.6,10-20.4,20.8-26.2c2.1-1.1,3.8-1.7,5.8,0.2c1.1,1,2.5,1.9,3.9,2.2
	c9.4,1.5,12,8.4,15.2,16.2c4,9.6,4.2,18.7,1.1,28c-6,18.4-23.1,30.2-45.3,28.2c-2.8-0.2-2.6-1.9-2.6-3.8
	C239.9,345.4,239.9,338.9,239.9,331z"/>
<path class="st6" d="M433,446.4c0-15.4,0-30.9,0-46.3c0.1-17.3-6.4-30.9-22-39.4c7.8,0,15.6-0.9,23.4,0.7
	c13.2,2.8,23.4,14.5,23.7,27.9c0.4,18,0.1,35.9,0.2,53.9c0,2.6-0.7,3.5-3.4,3.4C447.6,446.5,440.3,446.5,433,446.4z"/>
<path class="st7" d="M113.7,203.6c27.3-0.1,54.6-0.2,82-0.1c4.9,0,6.5-1,6.5-6.2c-0.2-16.1,0-32.2-5.2-47.8
	c-6.6-19.7-18.3-35.6-34.8-48c-0.8-0.6-1.4-1.4-2-2.1c20,4.6,35.7,15.8,48,32c11.3,14.9,17.1,31.8,17.2,50.6c0,6.5,0,13,0.1,19.5
	c0,2.4-0.8,3-3.2,3c-34.3-0.1-68.6-0.1-102.9-0.2C117.3,204.3,115.4,204.6,113.7,203.6z"/>
<path class="st8" d="M178.7,341.2c21.5-14.5,35.9-33.7,42.7-58.6c0.3-1.2,0.3-2.7,2.1-3c13.5-2.4,22.7-10.3,28.7-22.3
	c0.3,0.2,0.5,0.2,0.5,0.3c3.4,6.8,1.2,10.6-5.2,15.1c-14.8,10.2-22.3,25.2-22.7,43.4c-0.3,12.1-0.1,24.2-0.1,37.7
	C211.1,341.2,195.1,340.6,178.7,341.2z"/>
<path class="st9" d="M207,446.4c0-17.1-0.5-34.2,0.1-51.3c0.5-16.5-5.7-29.2-19.1-38.5c18.8-1,32.3,8.1,36.3,24.7
	c0.6,2.5,0.8,5.3,0.8,7.9c0.1,17.6-0.1,35.2,0.1,52.8c0,3.8-1.2,4.9-4.8,4.6C216,446.3,211.5,446.5,207,446.4z"/>
<path class="st1" d="M459.9,285.4c2.9-1.6,5.9-3,8.7-4.8c1.9-1.2,3.4-0.8,5.1,0.2c13.5,7.6,21.4,18.9,22.2,34.4
	c0.6,12.1,0.1,24.3,0.2,36.4c0,3-0.9,4.2-4,4c-6.1-0.3-12.3,0.6-18.1-2.1c-0.9-3.8-0.4-7.6-0.4-11.4c-0.1-9.6,0.1-19.3-1.1-28.9
	c-1-8.7-4.8-16.2-9.8-23.2C461.8,288.6,460.2,287.4,459.9,285.4z"/>
<path class="st4" d="M459.9,285.4c8.2,6.6,12.2,15.8,13.8,25.7c2.1,13.3,1.3,26.8,1.2,40.2c0,0.7-0.6,1.5-0.9,2.2
	c-16.2-5-27.1-20.1-28.3-36.8c-0.8-10.7,5.4-19,7.7-28.6C454,285.5,457.8,286.4,459.9,285.4z"/>
<path class="st10" d="M409,282.4c2.5-1.9,5.4-0.7,8.2-0.9c2-0.2,3.8-0.6,3.8-2.9c-0.2-8,1-16.1-0.6-24.1c-1.1-2.6-0.9-5.3-0.1-8
	c1.8-4.5,0.4-9.2,0.8-13.8c0.4,0,0.7,0,1.1,0c7.1,0.7,14.2,0.3,21.3,0.2c3.8-0.1,5.1,1.5,5.1,4.9c0.1,9.8,0.1,19.5,0,29.3
	c0,2.5-0.6,4.6-3.5,5.3c-3.3,1.6-4.9,4.2-5.5,7.8c-0.8,4.2-1.7,8.5-3.7,12.4c-1.5,0-1.9-1.3-2.2-2.3c-1.3-5.2-5-6.2-9.8-6.3
	C418.9,283.7,413.7,285.3,409,282.4z"/>
<path class="st10" d="M201.9,271.4c2.1-17.3,0.6-34.6,1.1-51.9c7,0,14.1-1.3,21,1c1.4,1.6,1.6,3.6,1.6,5.6c0,10.7,0.1,21.4,0,32.2
	c0,2.3-0.1,4.7-2.5,6c-1.4,0.3-2.9,0.8-4.3,0.9c-8.4,0.9-8.9,1.2-10.9,9.2C205.2,274.6,203.4,273.2,201.9,271.4z"/>
<path class="st10" d="M38,219.5c0,13.4,0,26.7,0,40.1c0,2.1-0.3,4.4,1.9,5.7c-18.9,1.1-29.3-15.7-25-29.8
	C18.1,225.4,27.2,218.9,38,219.5z"/>
<path class="st10" d="M393.1,364.7c-1.7,12.1-12.5,21.2-25.1,21.2c-12.7,0-23.4-9-25.1-21.1c0.2-2.9,2.5-2.2,4-1.9
	c14.1,3.1,28,2.2,41.8-1.8C391.5,360.2,394.4,360.1,393.1,364.7z"/>
<path class="st11" d="M445,272.4c1.6-1.2,2-2.8,2-4.7c-0.1-10-0.2-20,0-29.9c0.1-3.3-1-4.2-4.3-4.3c-6.9-0.2-13.9,1.1-20.7-0.7
	c8.6-0.1,17.3-0.2,25.9-0.1c11.1,0.1,19.7,8.1,20.2,18.5c0.5,11.3-7.2,20-18.6,21.1C448,272.4,446.5,272.3,445,272.4z"/>
<path class="st11" d="M393.1,364.7c0-2.6-0.9-3.6-3.7-2.5c-7.3,3-15.2,3.4-22.9,4.2c-6.4,0.7-12.8-1-19.2-2
	c-1.5-0.2-3.1-1.8-4.4,0.3c-1.6-4.5-0.5-9.2-0.8-14.2c17.4,5.1,34.4,5.1,51.8-0.1C393.6,355.5,394.7,360.2,393.1,364.7z"/>
<path class="st10" d="M153.9,361.5c-5.5,11.6-15.8,17.8-28.7,17.1c-11.5-0.6-21.7-8.2-25.5-19c1.8-1.7,3.8-0.8,5.6-0.4
	c14.3,3.7,28.8,4.7,43.4,1.8C150.5,360.6,152.3,360.1,153.9,361.5z"/>
<path class="st10" d="M384,337.4c8.3-6.3,16.4-12.8,22.3-21.6c2.5-3.7,4.7-7.6,6.9-11.5c1.7-3.1,2.4-5.3-2.5-4.9
	c-0.5,0-1.1-0.5-1.7-0.8c1.8-1.8,4-1.5,6.1-1.1c5.7,1,11.2,1,16.6-1.6c0.8-0.4,2.2-1.4,2.5,0.7C424.1,318.3,407.3,331.9,384,337.4z"
	/>
<path class="st11" d="M223,264.3c1.2-1.8,1-3.8,1-5.8c0-12.7,0-25.3,0-38c9.8,2.8,16.1,11.3,16.1,21.7
	C240.1,252.8,233.7,261.2,223,264.3z"/>
<path class="st12" d="M153.9,361.5c-7.2,1.8-14.7,2.7-22.1,2.9c-9.1,0.2-18.1-1.4-26.9-3.7c-1.7-0.5-3.4-1.4-5.3-1.1
	c-0.2-0.4-0.6-0.8-0.7-1.3c-0.6-2.2-2.2-4.8-0.7-6.6c1.3-1.4,3.7,0.4,5.6,0.8c17.7,4.2,35.2,3.5,52.9-1.8
	C156.7,354.9,156,358.4,153.9,361.5z"/>
<path class="st13" d="M434.1,296.5c-8.1,4.6-16.7,2.3-25.1,2c-4-1.3-6.1-3.9-6.1-8.3c0.1-4.2,2.3-6.5,6.1-7.8c5.4,0,10.9,0,16.3,0
	c6.8,0,8.7,1.6,9.8,8.3c0.1,0.6,0.5,1.2,0.8,1.7C435.5,294,435.2,295.4,434.1,296.5z"/>
<path class="st14" d="M201.9,271.4c2.3,0.3,4.1,1.7,5.9,3c-0.9,5.2-2.2,10.4-4.7,15.1c-2.2,0.5-4.3,0.5-6.1-0.9
	c-4.2,0-8.3,0.1-12.5-0.1c-5.2-0.2-8.4-3.5-8.4-8.5c0-4.7,3.6-8.4,8.5-8.5C190.3,271.4,196.1,271.4,201.9,271.4z"/>
<path class="st13" d="M297.1,283.5c7.8-2.2,15.8-1.2,23.7-0.8c4,0.2,5.8,4,6,7.5c0.1,3.6-1.7,6.7-5.5,8.1c-6,2.1-12.2,0.7-18.2,1.1
	C300,294.5,298.1,289.2,297.1,283.5z"/>
<path class="st10" d="M282,233.5c0,12.6,0,25.2,0,37.8c-9.2-2.9-14.9-10.4-14.6-19.4C267.7,243,273.4,235.9,282,233.5z"/>
<path class="st15" d="M326.9,344.9c-11,1.1-21.9-0.5-33.3,3.1c5.4-6.6,7.9-13.4,10.2-21.2C310.9,334.1,318.6,339.8,326.9,344.9z"/>
<path class="st15" d="M409,344.9c8.2-5.1,15.8-10.8,22.9-18.1c2.1,7.5,4.8,14.2,9.6,20.8C430.3,344.4,419.7,346,409,344.9z"/>
<path class="st16" d="M196.9,288.6c2.1,0.2,4.3-0.9,6.1,0.9c-5.5,14.2-14.4,25.7-26.9,34.4c1.8-5.2,6.7-8.1,9.5-12.5
	C190.2,304.2,195.3,297.3,196.9,288.6z"/>
<path d="M127.1,311.8c-14.2,0-26.1-11.1-26.6-25.1c-0.2-5,2.5-8.5,6.8-8.9c4-0.4,7.4,2.3,8,7.2c0.7,5.7,3.1,9.9,8.8,11.5
	c7.1,2,13.3-2.6,14.6-10.4c1-5.9,4.1-8.9,8.5-8.2c4.7,0.7,7.1,4.9,6.2,10.7C151.4,302.3,140.6,311.8,127.1,311.8z"/>
<path class="st13" d="M68.4,288.5c-2.7,0-5.3,0.1-8,0c-5.3-0.2-8.4-3.2-8.5-8.3c-0.1-5.3,3-8.6,8.6-8.7c5.3-0.1,10.6-0.1,15.9,0
	c5.3,0.1,8.4,3.2,8.5,8.3c0.1,5.4-3,8.5-8.6,8.7C73.7,288.6,71.1,288.5,68.4,288.5z"/>
<path class="st17" d="M163.6,249c0-2.8-0.1-5.7,0-8.5c0.3-4.6,3-7.2,7.2-7.3c4.2-0.1,7.2,2.5,7.5,7.1c0.3,5.6,0.3,11.3,0,17
	c-0.2,4.7-3.5,7.5-7.8,7.3c-4.1-0.2-6.7-3-7-7.6C163.5,254.3,163.6,251.6,163.6,249z"/>
<path class="st17" d="M75.8,248.4c0-2.7-0.1-5.3,0-8c0.2-4.3,2.5-6.8,6.8-7.2c4.1-0.4,7.7,2.2,7.9,6.5c0.4,6.1,0.4,12.3-0.1,18.5
	c-0.3,4.1-3.3,6.5-7.7,6.2c-4.3-0.3-6.7-2.8-6.9-7.1C75.6,254.4,75.8,251.4,75.8,248.4z"/>
<path d="M367.7,315.5c-12.8,0-23.6-10.2-24.5-23c-0.3-4.9,2.3-8.5,6.6-9c4.4-0.5,7.4,2.1,8.3,7.3c1,6.1,4.4,9.6,9.5,9.7
	c5.1,0.1,8.6-3.3,9.7-9.4c1.1-5.5,4-8.2,8.6-7.6c4.4,0.6,6.7,4,6.3,9.7C391.3,305.6,380.4,315.5,367.7,315.5z"/>
<path d="M336,258.2c0,2.5,0.1,5,0,7.5c-0.3,4.6-3.5,7.7-7.6,7.7c-3.9-0.1-7.2-3.1-7.3-7.4c-0.1-4.2,0-7.7-4.5-10.8
	c-4.6-3-1.8-10.9,3.8-11.8c3.1-0.5,6.3-0.4,9.5,0c3.8,0.4,5.8,3.1,6.1,6.8C336.1,252.9,336,255.6,336,258.2
	C336,258.2,336,258.2,336,258.2z"/>
<path class="st18" d="M420.2,246.5c1.2,2.6,1.3,5.3,0.1,8c-4.8,2.5-5.9,6.4-5.7,11.7c0.2,4.4-3.9,7.7-7.8,7.2
	c-4.3-0.6-6.9-3.1-6.9-7.7c-0.1-5-0.1-10,0-14.9c0.2-4.8,2.7-7.3,7.5-7.5C411.8,243.1,416.8,242,420.2,246.5z"/>
</svg>
