<?xml version="1.0" encoding="utf-8"?>
<!-- Generator: Adobe Illustrator 26.0.3, SVG Export Plug-In . SVG Version: 6.00 Build 0)  -->
<svg version="1.1" id="Capa_1" xmlns="http://www.w3.org/2000/svg" xmlns:xlink="http://www.w3.org/1999/xlink" x="0px" y="0px"
	 viewBox="0 0 512 512" style="enable-background:new 0 0 512 512;" xml:space="preserve">
<style type="text/css">
	.st0{fill:#3C86CF;}
	.st1{fill:#444444;}
	.st2{fill:#FECDBE;}
	.st3{fill:#D67E4A;}
	.st4{fill:#5A5A5A;}
	.st5{fill:#EF7280;}
	.st6{fill:#EA5569;}
	.st7{fill:#C76D36;}
	.st8{fill:#FEFEFE;}
	.st9{fill:#0078C7;}
	.st10{fill:#FEAF9D;}
	.st11{fill:#FEA68E;}
	.st12{fill:#FDA68E;}
	.st13{fill:#FD8F83;}
	.st14{fill:#FD8E82;}
	.st15{fill:#FDFDFD;}
	.st16{fill:#FCAE9C;}
	.st17{fill:#010101;}
	.st18{fill:#010000;}
	.st19{fill:#8BA2B6;}
	.st20{fill:#404040;}
	.st21{fill:#F78EA3;}
	.st22{fill:#DCC99F;}
	.st23{fill:#FEE3C1;}
	.st24{fill:#DDCA9F;}
	.st25{fill:#C6EEBB;}
	.st26{fill:#EF5475;}
	.st27{fill:#57758C;}
	.st28{fill:#A9E699;}
	.st29{fill:#F1D0A4;}
	.st30{fill:#FCFCFC;}
	.st31{fill:#FEFDFD;}
	.st32{fill:#FEFCFD;}
	.st33{fill:#E39442;}
	.st34{fill:#FEC150;}
	.st35{fill:#FECF64;}
	.st36{fill:#E18324;}
	.st37{fill:#DCE9FA;}
	.st38{fill:#CAE1FD;}
	.st39{fill:#DF8224;}
	.st40{fill:#DC636D;}
	.st41{fill:#DC626D;}
	.st42{fill:#FEEF81;}
	.st43{fill:#95E5FE;}
	.st44{fill:#F4C781;}
	.st45{fill:#00D1FE;}
	.st46{fill:#FEDB64;}
	.st47{fill:#F4AE72;}
	.st48{fill:#5B5D6E;}
	.st49{fill:#F4AE73;}
	.st50{fill:#464655;}
	.st51{fill:#5A5C6D;}
	.st52{fill:#FEFEFD;}
	.st53{fill:#E17E85;}
	.st54{fill:#F4DDB1;}
	.st55{fill:#FEDF7D;}
	.st56{fill:#EECA82;}
	.st57{fill:#FAEFDB;}
	.st58{fill:#E5979D;}
	.st59{fill:#E8ECF0;}
	.st60{fill:#FEEFAE;}
	.st61{fill:#FEDF7C;}
</style>
<path d="M510.5,53c0,98,0,195.9,0,293.9c-1.1,4-3.8,5.9-7.8,6.3c-0.6,0.1-1.2,0.1-1.8,0.2c-3.2,0.2-6.3,0.1-9.5,0.1
	c-158,0-315.9,0-473.9,0c-2.8,0-5.6,0.2-8.4-0.2c-0.6,0-1.3-0.1-1.9-0.2c-6.2-2-7.2-3.6-7.2-11.1c0-81.5,0-163,0-244.5
	c0-13.1,0-26.2,0-39.3c0-12.6,5.9-18.6,18.5-18.7c31.4-0.1,62.7,0,94.1,0c16.3,0,32.5,0,48.8,0c2.3,0,4.7-0.1,6.9,0.6
	c5.6,1.7,8.4,6.8,6.6,12.5c-1.4,4.6-3.6,8.9-5.8,13.2c-1.3,2.5-0.8,3.7,2.2,3.6c1.5-0.1,3,0,4.5,0c53.1,0,106.2,0,159.4,0
	c8.4,0,8.4,0,4.9-7.4c-1.4-2.8-2.7-5.7-3.7-8.7c-1.9-5.6-0.1-10.4,4.7-12.6c4.2-1.9,8.4,0,11.5,5.1c0.3,0.6,0.6,1.2,0.8,1.8
	c14.2,33.6,35,62,64.7,83.5c21.3,15.4,45.1,24.3,71.5,26.4c3.7,0.3,4.7-1.1,4.7-4.4c0-30.2,0-60.4-0.1-90.6c0-4.6-0.7-5.1-6.4-5.1
	c-32,0-64.1,0-96.1,0c-1.8,0-3.7,0-5.5,0c-8-0.2-10.6-3.1-10.2-11.1c1.6-4.5,5.1-6.3,9.6-6.7c1.8-0.1,3.7-0.1,5.5-0.1
	c32.9,0,65.8,0,98.6,0c1.3,0,2.7,0,4,0C503.2,39.9,508.2,43.8,510.5,53z"/>
<path d="M510.5,483.4c-3.3,8.8-9.7,11.9-18.9,11.9c-157.5-0.1-315.1-0.1-472.6-0.1c-13,0-18.5-5.4-18.5-18.3
	c0-20.8,0.1-41.5-0.1-62.3c-0.1-5.5,1.5-9.3,7.1-10.9c4.5-1.9,9.2-0.6,13.6,0c9.7,1.3,18.7,4.7,26.1,11.3c2.4,2.1,4.2,1.7,6.4-0.2
	c9.1-7.7,19.8-11,31.6-11.7c11.6-0.7,22.8-0.1,33.7,4.3c16.1,6.6,24,18.8,24.4,35.9c0.2,10,0,19.9,0.1,29.9c0,5.2,0.5,5.6,5.7,5.7
	c1.5,0,3-0.1,4.5,0c3.7,0.3,5.7-1.5,7.1-4.8c9.6-22.1,19.3-44.1,29-66.1c1.5-3.5,3.1-7,4.7-10.5c1.5-3.4,0.3-4.6-3.1-4.5
	c-1.3,0-2.7,0-4,0c-29.7,0-59.4,0-89.2,0c-2.5,0-5,0.1-7.4-0.4c-5.4-1.2-8-4.3-8.5-10.1c1.3-5.1,4.7-7.4,9.8-7.4c1.8,0,3.7,0,5.5,0
	c79.9,0,159.7,0,239.6,0c2,0,4-0.1,6,0.1c6.4,0.4,8.7,2.7,9.4,9.2c-1.2,5.8-4,8.2-10.4,8.5c-7.1,0.4-14.3,0.1-21.4,0.1
	c-5.4,0.1-5.7,0.4-3.6,5.3c11.2,25.5,22.4,51.1,33.6,76.6c1.4,3.1,3.5,4,6.6,4.1c10.5,0.2,10.5,0.3,10.5-10c0-7.6,0-15.3,0-22.9
	c0-21.4,9.3-34.7,29.8-40.5c17.7-4.9,35.4-4.7,52.3,4c1.6,0.8,3.2,1.8,4.7,2.8c6.4,4.6,6.4,4.6,13-0.2c7.5-5.5,16-8,25-8.9
	c3.4-0.3,6.9-0.7,10.4-0.7c3.5,0.7,6.6,1.9,7.6,5.9C510.5,433.6,510.5,458.5,510.5,483.4z"/>
<path class="st52" d="M510.5,408.7c-1.9-2.2-4.1-4.1-7.2-4.6c-1.2-1.9-1.4-4-1.4-6.2c0-13.6,0.3-27.2,0.2-40.8c0-1.8,0-3.7,1.4-5.1
	c3.1-0.7,5.1-2.7,7-5.1C510.5,367.5,510.5,388.1,510.5,408.7z"/>
<path class="st53" d="M109,210.6c7,0,9.1-2,9.9-8.8c1.7-14.3,3.7-28.6,5.2-43c0.4-4,2.2-5.3,5.9-6.3c31.6-8.2,58.9-23.6,79.8-49.4
	c3.6-4.4,6.9-9,9.5-13.9c1.3-2.4,2.7-3.3,5.4-3.2c6.3,0.2,12.6,0.2,18.9,0c3.2-0.1,4.5,0.7,4.3,4.1c-0.3,5.6-0.3,11.3,0,16.9
	c0.1,3-1.2,4.4-3.7,5.6c-16,7.9-31.9,16.2-48,24c-5.1,2.5-7.2,5.8-6.8,11.3c0.3,4.1,0.1,8.3,0.1,12.4c0,8.9,2,12.6,10.7,14.8
	c5.9,1.5,7.2,4.5,6.5,9.7c-0.2,1.6,0,3.3,0,5c0,9.2,2.3,13,10.9,16.1c3.5,1.3,4.6,3,4.3,6.4c-0.3,3,0.1,6-0.1,9
	c-0.4,7.2,2.9,12.4,9.4,14.9c16.1,6.2,32.4,6.2,48.6,0c6.5-2.5,9.8-7.7,9.4-14.9c-0.1-1,0.1-2,0-3c-0.9-6.9-0.1-12.2,8.1-14.5
	c5-1.4,7.4-6.4,7-12c-0.1-1,0.1-2,0-3c-1-7.4-0.2-13.1,9.1-14.9c5.5-1,8.5-5.8,8.1-12.1c-0.3-5-0.3-10,0-14.9c0.3-5-1.9-8-6.3-10.2
	c-16.1-7.9-32-16.1-48-23.9c-3.2-1.5-4.4-3.4-4.2-6.8c0.3-5.6,0.2-11.3,0-16.9c0-2.4,0.8-3.2,3.2-3.2c7,0.1,13.9,0.1,20.9,0
	c1.9,0,3,0.7,3.9,2.3c20.8,34.8,52.4,54.5,90.8,64.4c3.3,0.9,4.4,2.4,4.8,5.6c3.7,30.5,7.5,60.9,11.3,91.3
	c1.9,15.1,3.8,30.3,5.8,45.4c0.8,6,0.8,6-5.1,6c-95.5,0-190.9,0-286.4,0.1c-5,0-5.6-1.6-5-5.9c2.3-16.9,4.4-33.9,6.6-50.8
	c0.8-5.9-0.8-8.2-6.7-10.3c-1.3-4.5,0.3-8.9,0.7-13.3C108,217.5,108.2,214,109,210.6z"/>
<path class="st54" d="M351.3,385.7c-0.2-7.1-2.2-9.2-9.2-9.2c-83.2,0-166.3,0-249.5-0.1c-5.4,0-8.4,2.2-9.5,7.4
	c-1.9,1.7-4.3,1.6-6.6,1.6c-20.6,0-41.1,0.1-61.7,0c-6.6,0-7-0.5-6.9-7.1c0.2-8.8-0.6-17.5,0.4-26.3c1.5-0.1,3-0.2,4.5-0.2
	c161.8,0,323.5,0,485.3,0c1.5,0,3,0.1,4.5,0.2c1.1,9.9,0.2,19.8,0.5,29.7c0.1,2.1-1.2,2.9-2.9,3.3c-1.5,0.3-3,0.3-4.5,0.3
	c-20.4,0-40.8,0-61.2,0c-2,0-4,0-5.9-0.7c-4.4-7-11.3-6.7-18.4-6.5c-7,0.2-13.9,0.3-20.9,0c-6-0.3-10.4,1.2-12,7.5
	C368.6,385.2,360,384.8,351.3,385.7z"/>
<path class="st55" d="M352.3,48.9c6.4,0,12.9,0,19.3,0c1.8,0,3.7,0.3,5-1.4c0.6,6.6,2.7,8.6,9.5,8.6c34.8,0,69.7,0.1,104.5-0.1
	c3.7,0,5,0.6,5,4.8c-0.2,31.3-0.2,62.7,0,94c0,4.1-1.1,4.7-5,4.4c-53.9-4.7-92-33.9-121-77.5C362.8,71.4,356.8,60.6,352.3,48.9z"/>
<path class="st55" d="M85.2,56.1c22.1,0,44.1,0,66.2,0c2.6,0,4.2,0,2.5,3.4c-18.8,36.6-44.1,66.9-81.5,85.6
	c-17,8.5-35.1,12.8-53.9,14.3c-2.3,0.2-3.2-0.2-3.2-2.8c0.1-32.5,0.1-65,0-97.6c0-3.7,2.3-2.9,4.3-2.9
	C41.4,56.1,63.3,56.1,85.2,56.1z"/>
<path class="st56" d="M255.4,336.9c-63.3,0-126.5,0-189.8,0.1c-4.4,0-5.9-0.7-4.7-5.4c1-4,1.1-8.2,1.5-12.3c0.2-2.3,0.9-3.8,3.7-3.3
	c0.8,0.2,1.7,0,2.5,0c124.5,0,249,0,373.6-0.1c4.7,0,6.4,1.3,6.5,5.9c0.1,4.1,0.8,8.3,1.5,12.3c0.4,2.4-0.4,3-2.5,2.8
	c-1.2-0.1-2.3,0-3.5,0C381.3,336.9,318.4,336.9,255.4,336.9z"/>
<path class="st34" d="M443.7,163.6c16.1,6.2,32.3,9.6,48.9,10.6c4.1,0.2,2.8,2.9,2.8,4.9c0.1,36.8,0,73.7,0,110.5
	c0,14.4-0.1,28.9,0.1,43.3c0,2.9-0.5,4.1-3.8,4c-7.3-0.3-14.6-0.3-21.9,0c-3.4,0.1-4.6-1-4.9-4.2c-2.3-19.6-4.8-39.2-7.3-58.7
	c-4.1-32.7-8.2-65.5-12.4-98.2C444.8,172,444.3,168.2,443.7,163.6z"/>
<path class="st34" d="M67.1,163.6c-2.2,17.4-4.3,34.2-6.4,50.9c-4.2,33.1-8.3,66.1-12.5,99.2c-0.9,6.7-1.8,13.5-2.6,20.2
	c-0.3,2.3-1.2,3-3.5,2.9c-7.6-0.1-15.3-0.2-22.9,0c-3.5,0.1-4-1.2-4-4.3c0.1-27.9,0.1-55.8,0.1-83.7c0-23.4,0.1-46.8-0.1-70.2
	c0-3.3,0.7-4.5,4.2-4.7C35.6,173.1,51.2,169.7,67.1,163.6z"/>
<path class="st57" d="M427.8,383.8c23.2,0,46.5-0.1,69.7,0.1c3.8,0,5.2-0.9,5.1-5c-0.3-8.9-0.1-17.9-0.1-26.9c0.3,0,0.7,0,1,0
	c-0.1,17.4-0.1,34.7-0.2,52.1c-7.8,0.3-15.5,0.8-23,3.3c-6.5,2.2-12.4,5.5-17.3,10.4c-1,1.1-1.7,3-3.8,0.8
	c-11.5-12.3-26.7-14.5-42.4-14.4c-8.8,0-17.5,1.4-25.6,5.1c-14.3,6.5-21.6,17.6-22.1,33.1c-0.3,11.3-0.2,22.6,0,33.8
	c0.1,3.3-0.9,4.1-4.1,4.1c-13.5,0-13.5,0.1-18.8-12c-10.6-24.1-21.1-48.2-31.8-72.2c-1.8-4-1.2-5,3.2-4.8c8.1,0.3,16.3,0,24.4,0.1
	c4.4,0,7.8-1.2,9.4-5.7c0.7-0.6,1.4-1.8,2.2-1.8c7-0.1,14-0.1,21.1,0c0.7,0,1.4,1.2,2.2,1.8c4.8,4.4,10.6,4.9,16.7,4.6
	c5.6-0.2,11.3-0.3,16.9,0C417.2,390.8,423.5,390,427.8,383.8z"/>
<path class="st57" d="M8.3,352c0,9,0.2,17.9-0.1,26.9c-0.1,4.1,1.3,5,5.1,5c23.2-0.2,46.5-0.1,69.7-0.1c2.1,6.5,3.7,7.6,10.9,7.6
	c33,0,66,0,99.1,0c5.5,0,5.5,0,3.4,4.8c-11.6,26.5-23.4,53-34.9,79.5c-1.4,3.3-3,5-6.8,4.6c-4.1-0.5-9.5,1.2-12-0.9
	c-2.7-2.2-0.7-7.8-0.8-11.9c-0.2-8,0-15.9-0.1-23.9c-0.2-17.7-9.3-30.4-26-36c-15.1-5-30.3-4.9-45.5-0.6c-7,1.9-13.1,5.5-18.2,10.8
	c-0.9,0.9-1.5,2.9-3.4,0.8c-10.2-11-23.6-14-37.9-14.6c-1.1,0-2.3-0.3-3.4-0.4c0-17.3,0-34.6,0-51.8C7.7,352,8,352,8.3,352z"/>
<path class="st58" d="M109,210.6c2.3,3.4,0.2,6.7-0.1,10c-0.3,4.5-0.6,9.1-1.9,13.5c-5.1,0.4-7.6,3.1-8.2,8.2
	c-2.2,18.3-4.6,36.5-6.8,54.8c-0.3,2.8-1.1,4.1-4.2,4c-6.5-0.2-12.9-0.2-19.4,0c-3,0.1-3.6-1-3.2-3.7c2.5-19.2,4.9-38.5,7.4-57.7
	c3.2-25.2,6.5-50.3,9.4-75.5c0.5-4.1,1.6-5.7,6-5.6c5.8,0.1,11.6-0.4,17.3-1.4c3.8-0.7,4.1,0.6,3.7,3.8c-1.6,12.3-3.2,24.7-4.7,37
	C103.6,203,102.9,208.1,109,210.6z"/>
<path class="st58" d="M432.3,301.1c-0.5,0-1,0-1.5,0c-11.7,0-11.5,0-12.9-11.4c-5.2-42-10.5-83.9-15.7-125.8c-0.2-1.3-0.2-2.7-0.4-4
	c-0.4-2.5,0.4-3,2.9-2.7c6.6,0.8,13.2,1.3,19.8,1.6c2.7,0.1,3.8,1,4.1,3.7c3.7,29.6,7.4,59.2,11.1,88.8c1.9,15,3.7,29.9,5.8,44.9
	c0.5,3.6,0.1,5.6-4.3,5.1C438.3,300.8,435.3,301.1,432.3,301.1z"/>
<path class="st8" d="M255.4,165.9c-15.4-0.1-30.8-0.1-46-3.4c-1.9-0.4-5.4,0-4.8-3.5c0.7-3.8-2.7-8.5,3-11.3
	c15.1-7.4,30.2-15.1,45.2-22.7c2-1,3.5-1,5.5,0c14.9,7.6,29.7,15.3,44.8,22.5c6,2.9,2.8,7.7,3.3,11.6c0.5,3.8-3.3,3-5.4,3.5
	C285.9,165.9,270.6,165.7,255.4,165.9z"/>
<path class="st34" d="M307.5,86c15.4,0,30.1,0,44.8,0c1.7,0,2.7,0.6,3.6,2c12.9,20.3,28.6,38.1,47.9,53.1
	C375.7,143.8,323.8,114.2,307.5,86z"/>
<path class="st34" d="M106.9,141.4c4-3.4,7.9-6.5,11.5-9.8c13.6-12.3,25.3-26.2,35.2-41.7c1.9-3.1,4-4.1,7.5-4
	c13.9,0.2,27.7,0.1,41.8,0.1C192.8,110.4,138.3,141.9,106.9,141.4z"/>
<path class="st59" d="M255.3,195.8c-9.4-0.1-18.9-0.1-28.2-2.3c-2-0.5-5-0.2-5.3-2.7c-0.5-3.4-0.3-6.9,0.1-10.4
	c0.1-1.3,2-0.6,3.1-0.6c20.4,1.5,40.8,1.5,61.1-0.1c2.2-0.2,3.1,0.1,3.3,2.8c0.4,9.6-0.1,10.4-9.7,11.9
	C271.6,195.6,263.5,195.7,255.3,195.8z"/>
<path class="st15" d="M255.5,210.3c5.1,0,10.3,0.1,15.4-0.1c2.3-0.1,3.1,0.4,3.2,2.9c0.5,10-0.8,11.5-11,12.2
	c-7.1,0.4-14.2,0.6-21.3-0.9c-3.8-0.8-5.6-2.3-5.4-6.6c0.4-7.7,0.1-7.7,7.5-7.4c3.3,0.1,6.6,0.1,9.9,0.2c0.5,0,1,0,1.5,0.1
	C255.5,210.6,255.5,210.5,255.5,210.3z"/>
<path class="st53" d="M334.3,480.2c-52.6,0-105.1,0-157.7,0c-0.5-1.7,0.5-3,1.1-4.3c11.7-26.7,23.5-53.3,35.1-80.1
	c1.3-3.1,2.9-4.5,6.5-4.5c24.2,0.2,48.5,0.1,72.7,0c2.8,0,4.4,0.7,5.6,3.5c11.9,27.3,23.9,54.6,35.9,81.9
	C334,477.8,334.6,478.8,334.3,480.2z"/>
<path class="st60" d="M92.3,480.3c-10.4,0-20.9-0.1-31.3,0.1c-2.8,0-3.7-0.8-3.6-3.7c0.1-9.8,0.1-19.6,0.1-29.4
	c0-16.3,5.9-23.8,21.8-27c10.2-2,20.5-2,30.5,1.1c11.7,3.6,17.1,10.9,17.2,23.1c0.1,10.3-0.1,20.6,0.1,30.8c0.1,3.7-0.7,5.1-4.8,5
	C112.2,480.1,102.3,480.3,92.3,480.3z"/>
<path class="st60" d="M418.7,480.3c-10,0-19.9-0.2-29.9,0.1c-3.7,0.1-5.1-0.7-5-4.8c0.3-9.6,0.1-19.2,0.1-28.9
	c0-15.6,5.9-23.1,21.3-26.3c10.5-2.2,21.1-2.1,31.5,1.2c10.8,3.4,16.2,10.3,16.6,21.5c0.4,11.3,0,22.6,0.2,33.8
	c0.1,3.3-1.5,3.3-4,3.3C439.3,480.3,429,480.3,418.7,480.3z"/>
<path class="st61" d="M495.5,449.5c0,9.1-0.1,18.3,0,27.4c0,2.5-0.6,3.5-3.3,3.4c-6.8-0.2-13.6-0.2-20.4,0c-3,0.1-3.6-1.1-3.5-3.8
	c0.1-10.5,0-20.9,0.1-31.4c0.1-13.7,6.1-21.2,19.3-24.5c7.8-1.9,7.8-1.9,7.8,5.9C495.5,434.3,495.5,441.9,495.5,449.5z"/>
<path class="st61" d="M15.3,449.7c0-9,0.1-17.9-0.1-26.9c0-2.7,0.7-3.3,3.3-3c16.1,2,23.8,10.6,23.9,26.8c0,10-0.1,19.9,0.1,29.9
	c0.1,3.1-0.8,4-3.9,3.9c-6.3-0.2-12.6-0.3-18.9,0c-3.4,0.1-4.6-0.7-4.5-4.3C15.5,467.3,15.3,458.5,15.3,449.7z"/>
<path class="st17" d="M427.8,383.8c-1,5.4-4.4,7.7-9.9,7.7c-10.6-0.1-21.2-0.1-31.8,0c-4.3,0-7.8-1.2-9.4-5.7
	c0.1-7.1,2.2-9.2,9.2-9.3c10.6-0.1,21.2,0.2,31.9-0.1C423.3,376.3,426.7,378.3,427.8,383.8z"/>
</svg>
