<?xml version="1.0" encoding="utf-8"?>
<!-- Generator: Adobe Illustrator 26.0.3, SVG Export Plug-In . SVG Version: 6.00 Build 0)  -->
<svg version="1.1" id="Capa_1" xmlns="http://www.w3.org/2000/svg" xmlns:xlink="http://www.w3.org/1999/xlink" x="0px" y="0px"
	 viewBox="0 0 512 512" style="enable-background:new 0 0 512 512;" xml:space="preserve">
<style type="text/css">
	.st0{fill:#3C86CF;}
	.st1{fill:#444444;}
	.st2{fill:#FECDBE;}
	.st3{fill:#D67E4A;}
	.st4{fill:#5A5A5A;}
	.st5{fill:#EF7280;}
	.st6{fill:#EA5569;}
	.st7{fill:#C76D36;}
	.st8{fill:#FEFEFE;}
	.st9{fill:#0078C7;}
	.st10{fill:#FEAF9D;}
	.st11{fill:#FEA68E;}
	.st12{fill:#FDA68E;}
	.st13{fill:#FD8F83;}
	.st14{fill:#FD8E82;}
	.st15{fill:#FDFDFD;}
	.st16{fill:#FCAE9C;}
	.st17{fill:#010101;}
	.st18{fill:#010000;}
	.st19{fill:#8BA2B6;}
	.st20{fill:#404040;}
	.st21{fill:#F78EA3;}
	.st22{fill:#DCC99F;}
	.st23{fill:#FEE3C1;}
	.st24{fill:#DDCA9F;}
	.st25{fill:#C6EEBB;}
	.st26{fill:#EF5475;}
	.st27{fill:#57758C;}
	.st28{fill:#A9E699;}
	.st29{fill:#F1D0A4;}
	.st30{fill:#FCFCFC;}
	.st31{fill:#FEFDFD;}
	.st32{fill:#FEFCFD;}
</style>
<path d="M317.5,311.7c0.1-2.3,0.2-4.6,0.4-6.8c1.4-1,2.9-0.5,4.4-0.5c61.4,0,122.9,0,184.3-0.1c3.2,0,5.1,0,5.1,4.3
	c-0.2,59.4-0.1,118.9-0.1,178.3c0,0.3-0.1,0.7-0.1,1c-1.5,2-3.8,1.8-5.9,1.8c-5.3,0.1-10.5,0-15.8,0.1c-5.6,0.1-5.9,0.4-6,5.9
	c-0.1,3.3,0,6.6,0,9.9c0,2-0.1,4-1.5,5.6c-5,0-10,0-15,0c-1.7-1.9-1.5-4.3-1.5-6.6c-0.1-3.5,0-7-0.1-10.4c-0.1-2.8-1.4-4.2-4.3-4.3
	c-7.8-0.1-15.6,0-23.4,0c-3,0-4.1,1.5-4.1,4.3c0,3.6,0,7.3,0,10.9c0,2.2,0.1,4.3-1.5,6.1c-5,0-10,0-15,0c-2.4-3.1-1.4-6.7-1.6-10.1
	c-0.1-2-0.1-4,0-6c0.1-3.5-1.4-5.3-5-5.2c-2,0-4,0-6,0c-60.5,0-121,0-181.6,0c-1.8,0-3.6,0-5.5,0c-7.2-0.2-8.2-1.2-8.2-8.5
	c-0.2-8.7,0.6-9.6,9.6-9.6c88.5,0,177.1,0,265.6,0c11.4,0,10.7,0.6,10.7-10.5c0-11.6,1.1-11.2-11-11.2c-151.8,0-303.6,0-455.4,0
	c-10.7,0-10.8,0-10.7,10.6c0.1,11.8-1.2,11.1,11,11.1c51.5,0,103,0,154.5,0c1.7,0,3.3,0,5,0c8.1,0.1,9,1.1,8.8,9.4
	c0.1,7.6-0.9,8.7-8.5,8.7c-26.5,0.1-53.1,0-79.6,0c-1.8,0-3.7,0-5.5,0c-5.3,0.2-5.6,0.8-6,6.2c-0.4,5,1.4,10.3-1.6,15.1
	c-5,0-10,0-15,0c-1.6-1.8-1.5-4-1.5-6.1c0-3.3-0.1-6.6,0-9.9c0.2-3.7-1.2-5.5-5.1-5.4c-7.1,0.2-14.3,0.1-21.4,0
	c-3.8,0-5.4,1.6-5.3,5.3c0.1,3.3,0,6.6,0,9.9c0,2.2,0.1,4.3-1.5,6.1c-5,0-10,0-15,0c0.1-6.3,0-12.6,0.3-18.9
	c0.1-2.9-0.8-3.7-3.7-3.6c-7.5,0.2-15-0.1-22.4,0.1c-3,0.1-4-0.7-4-3.8c0.1-59,0.1-117.9,0-176.9c0-3.5,1.2-4.1,4.3-4
	c8.1,0.2,16.3-0.1,24.4,0.2c3.5,0.1,4.4-0.8,4.4-4.4c-0.1-37.4-0.1-74.7-0.1-112.1c0-1.8,0.2-3.6,0.2-5.5c3.4-0.9,6.8-0.4,10.3-1.1
	c3.7-0.8,5.5,1.3,5.7,5.7c0.3,6.8,0,13.6,0.1,20.4c0.1,6.1,0.5,6.4,6.5,6.5c4,0,8-0.1,11.9,0c3.8,0.1,5.3-1.6,5.3-5.3
	c-0.1-7.5,0-14.9,0-22.4c0-9.6,0.9-10.4,10.6-10.2c2.1,0.1,4.3-0.1,6.2,1.3c1.6,2.2,1.1,4.8,1.1,7.2c0,29.3,0,58.7,0,88
	c0,8.1,0.4,16.2,0.2,24.4c-0.1,4,1.6,5.6,5.6,5.6c26.9,0,53.7,0,80.6-0.1c4.8,0,5.4-1,5.3-6.8c-0.1-5.2-0.6-5.8-5.6-5.9
	c-6.3-0.1-12.6,0.1-18.9-0.1c-6.1-0.1-6.9-1.1-7.2-7.4c0-10.4,0.1-10.5,10.6-10.5c5.6,0,11.3-0.1,16.9,0c4.5,0.1,4.5-2.8,4.5-6
	c0-3.1,0.3-6.3-4.3-6.2c-2.2,0-4.3,0-6.5,0c-1.3,0-2.8,0.2-3.9-0.4c-5.6-2.7-2.6-7.9-3.1-12c-0.4-3,1.1-5.1,4.5-5.3
	c2.3-0.1,4.6-0.1,7-0.1c5.9-0.1,6.3-0.4,6.3-6.2c0-14.9,0-29.9,0-44.8c0-2.2,0-4.3,0-6.5c0-10.1,6.3-13.6,15.2-8.5
	c5.5,3.1,10.8,6.5,16.1,10c3.2,2.1,5.2,1.9,7.2-1.5c3.8-6.6,7.5-13.3,11.6-19.8c1.5-2.4,1.3-4.2-1.2-5.9
	c-11.9-8.2-23.3-17.1-35.7-24.5c-10-6-21.4-9.2-32.5-12.5c-6-1.8-11.3,2.7-16.6,5.2c-1.5,0.7-1.2,3-1.2,4.6
	c-0.1,4.1,0.1,8.3-0.1,12.5c-0.2,4.8-1.2,5.7-6,5.9c-0.5,0-1,0-1.5,0c-9.1,0.1-10.1-0.8-10.1-9.8c0-1,0-2,0-3
	c0-11.5-0.2-11.7-11.2-15.2c-2-0.6-3.9-0.4-5.8,0.3c-15.7,5.5-31.2,11.2-46.9,16.8c-8.9,3.2-13.5,9.8-14.8,19
	c-0.2,1.5-0.2,3-0.3,4.5c-0.4,6.2-2.5,7.4-8.4,4.9c-8.1-0.7-8.1-0.7-7.7-9.2c0.8-16.1,10.2-28.9,25.6-34.6
	c13.5-4.9,27.1-9.8,40.7-14.6c2.6-0.9,3.4-1.5,1.7-4.2c-4.5-7-6.1-15-6.1-23.3c0-17.1-0.1-34.2,0-51.3C96.7,12.3,108.3,0.9,126,0.8
	c26.9,0,53.8,0,81.3,0c-4.4,8.5-8,16.9-13,24.4c-10.6,16.1-15.1,33.4-13,52.7c1,9.4-0.6,18.6-5.8,26.8c-1.1,1.8-0.7,2.6,1.3,3.1
	c31,8.1,54,29.7,79.7,46.8c3.9,2.6,5.6,2.7,8.4-1.3c5.3-7.6,11.2-14.7,17-22.2c-19.7-7.8-31.8-21.7-36.5-41.9
	c-6.2-26.8,9.9-53.1,34.8-57.5c22.3-3.9,44.8,8.3,55.3,30.2c6.9,14.3,7.9,29,2,43.9c-1,2.5-0.6,3.6,1.4,5.2
	c13.4,10.9,16.1,28.9,6.4,43.3c-1.7,2.5-2,4.2,0.1,6.4c1.2,1.3,2.2,2.9,3.2,4.4c1.9,2.9,6.4,6.5,5.3,8.4c-1.9,3.4-6.5,5.3-10,7.9
	c-1.9,1.4-2.3-0.5-3-1.4c-2-2.6-4-5.3-5.8-8.1c-1.3-2.1-2.2-1.7-3.6,0c-3.7,4.9-7.9,9.5-11.3,14.5c-2.5,3.6-4.5,4.1-7.4,0.8
	c-0.5-0.6-1.4-0.9-2.1-1.3c-6.5-2.7-7.1-4.7-2.9-10.1c7.8-9.9,15.9-19.6,23.3-29.8c7.7-10.5,2.3-23.6-10.4-25.7
	c-6.5-1.1-11.6,2-15.5,7c-8.8,11.4-17.6,22.8-26.5,34.3c-3.7,4.7-7.3,9.4-11,14.1c-2.2,2.8-4.3,3.3-7.1,1.2
	c-1.9-1.4-3.9-2.5-5.8-3.9c-2.5-2-4.1-1.2-5.6,1.3c-4,6.9-8.3,13.6-12.1,20.6c-1.2,2.2-1,3.7,1.1,5c7.7,4.8,15.2,10.1,23.2,14.5
	c5.6,3.1,12.7,1.8,17.5-2.8c4.4-4.3,7.9-9.4,11.7-14.2c5.1-6.2,7.6-6.2,12,0.4c4.9,4.3,4.9,4.3,0.7,9.6c-3.4,4.3-6.7,8.6-10.2,12.8
	c-10.9,13.1-27.5,15.8-42,6.8c-15.2-9.5-30.3-19.1-45.4-28.7c-1.2-0.8-2.2-2-4.3-1.9c0,1.3,0,2.6,0,3.8c0,32.9,0.1,65.8-0.1,98.6
	c0,3.9,0.9,5,4.9,4.9c29.4-0.2,58.8-0.1,88.2-0.1c8,0,8,0,8.5,7.7c2.2,5.9,0.9,8.2-5.1,8.6c-2.3,0.2-4.6,0.1-7,0.1
	c-87,0-174,0-261,0c-2,0-4,0.1-6,0c-4.1-0.1-5.6,1.9-5.6,5.8c0,4.9,0.7,5.7,5.7,5.9c1.7,0.1,3.3,0,5,0c151.9,0,303.8,0,455.8,0
	c1.3,0,2.7,0,4,0c6.2-0.1,7.3-1.4,6.6-7.4c-0.3-2.9-1.7-4.1-4.5-4.2c-2-0.1-4-0.1-6-0.1c-52,0-103.9,0-155.9,0
	c-2.2,0-4.3,0.1-6.5-0.1C316.5,319.9,315.2,317.6,317.5,311.7z"/>
<path class="st19" d="M432.3,511.1c-0.1-6.4-0.1-12.9-0.3-19.3c-0.1-2.8,1.2-3.3,3.6-3.2c9.3,0.1,18.5,0.1,27.8,0
	c2.8,0,3.7,1,3.7,3.8c-0.1,6.3,0.1,12.6,0.1,18.8C455.5,511.1,443.9,511.1,432.3,511.1z"/>
<path class="st19" d="M46.6,511.1c0.1-6.3,0.3-12.6,0.1-18.8c-0.1-2.8,0.8-3.8,3.7-3.8c9.3,0.1,18.5,0.1,27.8,0
	c2.4,0,3.7,0.5,3.6,3.2c-0.2,6.4-0.2,12.9-0.3,19.3C69.8,511.1,58.2,511.1,46.6,511.1z"/>
<path class="st20" d="M512,488.2c-0.3,0-0.6,0.1-0.9,0.1c0-58.9,0-117.8-0.1-176.7c0-7.7,0.9-6.8-7-6.8c-62,0-124.1,0-186.1,0
	c1.4-2.1,3.6-1,5.3-1c62.9-0.1,125.9-0.1,188.8-0.1C512,365.3,512,426.7,512,488.2z"/>
<path class="st21" d="M42.5,167.3c1.2-0.1,2.3-0.4,3.5-0.2c3.2,0.4,4-1,3.8-4c-0.4-6.6,0.8-12.9,5.1-18.2c2.9-3.6,6.7-5.9,11-7.4
	c15.6-5.6,31.2-11.2,46.7-16.9c2.8-1,5.4-1.5,7.9,0.6c0.4,0.3,0.9,0.5,1.4,0.6c9.7,0.9,10.3,7.3,9.9,15.2
	c-0.6,11.7-0.1,11.7,11.4,11.2c2.6-0.1,3.5-0.8,3.4-3.4c-0.1-5.3,0.1-10.6-0.1-15.9c-0.1-2.7,0.3-4.4,3.5-4.7
	c1.6-0.1,3.4-0.6,4.7-1.6c6.2-4.8,12-2,18.4-0.3c24.6,6.6,43.4,23.1,63.8,36.8c1.7,1.1,1.5,2.1,0.6,3.6
	c-5.1,8.5-10.2,17.1-15.2,25.7c-1.2,2.1-2.2,1.7-3.9,0.7c-6.3-4-12.7-7.8-18.9-12c-3.7-2.5-7.7-1.5-11.6-1.4
	c-2.6,0.1-1.5,2.9-1.5,4.5c-0.1,19.4-0.2,38.8,0,58.3c0,3.8-0.8,5.6-4.9,4.9c-1-0.2-2-0.1-3,0c-3.4,0.3-8.6-1.6-9.9,0.8
	c-1.7,3.2-0.6,8-0.7,12.2c-0.1,2,1.3,2,2.7,2c4.2,0,8.3,0.1,12.4,0c2.3-0.1,3.5,0.6,3.3,3c0,0.3,0,0.7,0,1
	c0.3,10.9,0.3,10.9-10.7,10.9c-5.3,0-10.6,0.3-15.9-0.1c-4.3-0.3-6.7,0.6-5.8,5.5c0.2,0.8-0.1,1.6-0.1,2.5
	c-4.5,4.1-9.6,2.4-14.6,1.4c-1-0.8-1.4-1.9-1.4-3.1c0.1-4.3-2.2-5.2-6-5.1c-3.7,0.1-6.6,0.4-6.5,5.1c0,1.3-0.5,2.6-1.8,3.3
	c-9.4,1.7-18.9,0.7-28.3,0.6c-3.5-0.1-3.5-2.6-3.5-5.3c0-31.7,0-63.4,0-95.2c0-1.8,0.3-3.7-0.3-5.4c-14.9-1.6-14.9-1.6-14.9,12.8
	c0,7.1-0.1,14.3,0.1,21.4c0.1,2.6-0.4,3.9-3.5,3.8c-6.5-0.2-12.9-0.2-19.4,0c-3.2,0.1-4.3-0.8-4.2-4.1c0.2-8.4,0-16.9,0.1-25.4
	c0.1-3-0.7-4.2-3.9-3.9c-3.6,0.3-7.3,0.2-10.9,0.2c1.8-2.6,6.4,1.3,7.3-2.7c0.6-2.8,0.2-5.8,0.2-8.7
	C42.5,169.6,42.5,168.4,42.5,167.3z"/>
<path class="st22" d="M317.5,311.7c0.4,7.3,0.4,7.3,8,7.3c55.1,0,110.3,0.1,165.4-0.1c4.6,0,6.4,0.7,6.2,5.8
	c-0.5,9.2-0.1,9.2-9.6,9.2c-154.8,0-309.5,0-464.3,0c-7.3,0-6.3,0.9-6.3-6.4c-0.1-8.6,0-8.6,8.6-8.6c89.8,0,179.7,0,269.5,0
	c7.5,0,7.5,0,7.9-7.3C307.8,311.7,312.6,311.7,317.5,311.7z"/>
<path d="M505.5,51c-0.6,18.6-7.2,35.6-14.9,52.2c-19.1,40.7-44.3,77.7-71.1,113.6c-1.5,2-2.3,2.5-4.5,0.8c-9.4-7-9.4-6.9-2.6-16.2
	c23.1-31.6,45.1-64,62.2-99.3c7.4-15.4,14.3-31,15.8-48.4c0.1-1,0.2-2,0.2-3c0.3-13.5-4.8-18.9-18.4-18.9c-17,0-33,5.1-48.9,10.4
	c-20.4,6.9-40.2,15.4-59.5,24.9c-3.2,1.6-4.3,1-5.8-2c-4.8-9.8-4.9-9.7,4.8-14.2c28-13,56.3-25,86.6-31.5c7.8-1.7,15.7-2.7,23.7-2.6
	C494.4,17.2,506.3,29.7,505.5,51z"/>
<path class="st23" d="M302.6,197.9c-6.8-4.9-6.8-4.9-12.2,1.9c-2.9,3.6-5.7,7.3-8.7,10.9c-6.2,7.4-14.4,8.9-22.6,3.9
	c-7.6-4.7-15.1-9.6-22.7-14.3c-2.1-1.3-2.7-2.2-1.3-4.5c5-8,9.8-16.1,14.4-24.3c1.2-2.2,2.1-2.2,4.1-0.9c3.6,2.4,7.2,7.6,10.9,6.5
	c3.5-1.1,5.7-6.5,8.5-10c10.4-13.3,20.7-26.7,31.1-40.1c7.1-9.1,17.5-10.8,25.6-4.3c7.8,6.2,8.4,16.8,1.4,25.6
	c-7.5,9.5-14.9,19.1-22.6,28.4c-2.8,3.4-3.3,5.6,0.9,7.8c0.5,0.3,0.9,0.9,1.3,1.4C308.3,190.1,304,193,302.6,197.9z"/>
<path d="M382.6,277.1c-15.3,0-27.4-12.2-27.3-27.5c0.1-15,12.2-27.2,27.1-27.3c15-0.2,27.6,12.3,27.7,27.4
	C410.1,264.7,397.7,277.1,382.6,277.1z"/>
<path class="st24" d="M210.8,481.3c-4.9,0-9.8,0-14.6,0c-0.4-7.6-0.4-7.6-8.2-7.6c-55.1,0-110.2-0.1-165.4,0.1
	c-4.9,0-6.3-1.4-5.9-6.1c0.4-4.6,0.4-9.3,0-13.9c-0.4-4.3,1.3-5.7,5.3-5c0.5,0.1,1,0,1.5,0c155.6,0,311.1,0,466.7,0
	c7.7,0,6.5-0.8,6.6,6.6c0.1,4.8-0.2,9.6,0.1,14.4c0.2,3.1-1,4.2-4,3.9c-1.1-0.1-2.3,0-3.5,0c-90.2,0-180.3,0-270.5,0
	C211.2,473.7,211.2,473.7,210.8,481.3z"/>
<path class="st23" d="M139.2,55.7c8,0,15.9,0.1,23.9-0.1c2.5,0,3.5,0.6,3.4,3.3c-0.2,8.1,0.1,16.3-0.1,24.4
	c-0.4,15.4-11.9,27-26.7,27.2c-15.1,0.2-27.1-10.9-28-26.5c-0.5-8.4,0-16.9-0.2-25.4c0-2.6,1-3,3.3-3
	C123,55.7,131.1,55.7,139.2,55.7z"/>
<path class="st25" d="M271,106.4c-10.3-10.9-14.4-23.7-10.4-38.4c4.7-17.5,21.2-26.2,38.4-20.5c14.4,4.8,25.9,19.3,26.7,33.9
	c-1.7,1.8-4,1.3-6.1,1.3c-17.7-0.3-31.7,7-42.8,20.4C275.4,105,274.3,107.8,271,106.4z"/>
<path class="st26" d="M91.6,177.3c1.4,1.6,0.8,3.5,0.8,5.2c0,31.2,0.1,62.4-0.1,93.7c0,4.7,1.4,5.9,5.9,5.7c8.6-0.3,17.3,0,25.9,0
	c4.4,6.6,11.2,6.5,15.2,0c4.9-0.6,9.9,0.9,14.7-0.9c0,1.2,0.3,2.3,0.1,3.5c-0.3,2.8,0.8,3.7,3.6,3.6c8.1-0.2,16.3,0,24.4-0.1
	c3-0.1,4.4,0.4,4.4,4c0.1,12,0.3,12-11.7,12c-25.9,0-51.8-0.1-77.6,0.1c-4.1,0-5.6-0.7-5.6-5.3C91.7,258.3,91.6,217.8,91.6,177.3z"
	/>
<path class="st27" d="M182.6,15.8c-4.3,8.2-8.2,15.5-11.9,22.9c-0.9,1.8-2.3,2.1-4,2.1c-17.2,0-34.5,0-51.7,0c-1.8,0-3.4,0-3.3-2.5
	c0.2-4-0.4-8,0.4-11.9c1.3-6.2,5.4-10.4,11.6-10.4C142.9,15.7,162.3,15.8,182.6,15.8z"/>
<path class="st23" d="M76.4,231.1c0.5,16.9,0.4,33.9,0.1,50.8c-2.5,2.2-5.6,1.6-8.6,1.6c-4.3,0.1-8.6,0.1-12.9,0
	c-3.3-0.1-5-1.2-5-5.1c0.2-14.7,0.1-29.4,0.1-44.2c0-1.9-0.2-3.8,2.6-3.7C60.6,230.9,68.5,230,76.4,231.1z"/>
<path class="st28" d="M271,106.4c1.9,0,3-1.4,3.9-2.7c11.8-15.5,27.3-23,46.8-22.2c1.3,0.1,2.7,0,4,0c1.7,7.1,0,13.7-2.7,20.2
	c-0.7,1.7-1.8,2.1-3.5,2.1c-10.3,0.1-19,3.8-25.6,12c-1.9,2.4-3.9,2.1-6.1,1.4C281.4,115,275.5,111.8,271,106.4z"/>
<path class="st29" d="M76.4,231.1c-7.1,0-14.3,0.1-21.4,0c-3-0.1-4.5,0.6-4.4,4.1c0.2,14.3,0.1,28.5,0,42.8c0,3,0.9,4.1,4,4
	c7.3-0.2,14.6-0.1,21.9-0.1c0.1,6.5,0.1,12.9,0.3,19.3c0.1,2.2-0.8,2.8-2.9,2.8c-7-0.1-13.9-0.1-20.9,0c-2.2,0-3.3-0.4-3.3-3
	c0.1-22.7,0-45.4,0-68.1c0-1.1-0.3-2.8,1.3-2.7C59.5,230.5,68,229,76.4,231.1z"/>
<path class="st15" d="M432,348.9c4.6,0,9.3,0.1,13.9,0c2.4-0.1,3.4,0.8,3.1,3.2c0,0.2,0,0.3,0,0.5c-0.3,4.8,2,10.8-0.9,13.9
	c-2.7,2.9-8.8,0.7-13.4,0.9c-5.6,0.2-11.3-0.1-16.9,0.1c-3.2,0.1-4.1-1-3.8-4c0.5-4.7-2-10.9,1.1-13.8c2.4-2.3,8.5-0.7,12.9-0.8
	C429.3,348.9,430.7,348.9,432,348.9z"/>
<path class="st15" d="M81.8,367.4c-4.6,0-9.3-0.1-13.9,0c-2.3,0.1-3-0.7-3.2-3.1c-0.9-15.4-1-15.4,14.2-15.4
	c5.8,0,11.6,0.1,17.4-0.1c2.6-0.1,3.5,0.8,3.4,3.4c-0.2,4-0.2,8,0,11.9c0.1,2.8-1.1,3.3-3.5,3.2C91.4,367.3,86.6,367.4,81.8,367.4z"
	/>
<path class="st30" d="M132.1,367.4c-4.8,0-9.6-0.1-14.4,0c-2.4,0.1-3.4-0.8-3.1-3.2c0-0.2,0-0.3,0-0.5c0.3-4.8-2-10.8,0.9-13.9
	c2.7-2.9,8.8-0.8,13.4-0.9c5.8-0.2,11.6,0.1,17.4-0.1c2.7-0.1,3.6,0.9,3.3,3.4c-0.4,4.9,2.1,11.3-1.1,14.2
	c-2.5,2.4-8.8,0.7-13.4,0.8C134.1,367.4,133.1,367.4,132.1,367.4z"/>
<path class="st30" d="M182.1,348.9c4.6,0,9.3,0.1,13.9,0c2.5-0.1,3.6,0.6,3.5,3.3c-0.2,4-0.2,8,0,11.9c0.1,2.7-1,3.3-3.5,3.3
	c-9.3-0.1-18.5-0.1-27.8,0c-2.7,0-4-0.6-3.7-3.6c0.4-4.8-1.9-10.8,0.9-13.9c2.6-3,8.7-0.6,13.3-1
	C179.8,348.8,180.9,348.9,182.1,348.9z"/>
<path class="st30" d="M230.9,348.9c5.8,0,10.4,0.1,15,0c2.5-0.1,3.6,0.7,3.5,3.3c-0.2,4-0.2,8,0,11.9c0.1,2.7-1.1,3.3-3.5,3.3
	c-9.4-0.1-18.9-0.1-28.3,0c-2.3,0-3.4-0.7-3.2-3.1c0-0.2,0-0.3,0-0.5c0.3-4.8-2.1-11.5,0.8-13.8
	C219.5,346.7,226.3,349.5,230.9,348.9z"/>
<path class="st30" d="M282.3,348.9c4.6,0,9.3,0.1,13.9,0c2.4-0.1,3.4,0.8,3.1,3.1c0,0.2,0,0.3,0,0.5c-0.3,4.8,2,10.8-0.9,13.9
	c-2.7,3-8.7,0.8-13.3,0.9c-5.8,0.2-11.6-0.1-17.4,0.1c-2.6,0.1-3.6-0.7-3.4-3.4c0.2-4,0.2-8,0-11.9c-0.1-2.8,1.1-3.3,3.6-3.2
	C272.7,349,277.5,348.9,282.3,348.9z"/>
<path class="st30" d="M331.8,367.4c-4.8,0-9.6-0.1-14.4,0c-2.4,0.1-3.4-0.7-3.1-3.1c0-0.2,0-0.3,0-0.5c0.2-4.8-1.9-10.9,0.8-14
	c2.6-2.9,8.8-0.8,13.4-0.9c5.8-0.2,11.6,0.1,17.4-0.1c2.6-0.1,3.6,0.7,3.4,3.4c-0.2,4-0.2,8,0,11.9c0.1,2.8-1.1,3.3-3.5,3.3
	C341.1,367.3,336.4,367.4,331.8,367.4z"/>
<path class="st30" d="M381.7,367.4c-4.8,0-9.6-0.1-14.4,0c-2.4,0.1-3-0.7-3.2-3.1c-0.9-15.4-1-15.4,14.2-15.4c5.8,0,11.6,0.1,17.4,0
	c2.6-0.1,3.6,0.7,3.4,3.4c-0.2,4-0.2,8,0,11.9c0.1,2.8-1.1,3.3-3.5,3.3C391,367.3,386.3,367.4,381.7,367.4z"/>
<path class="st8" d="M381.4,400.5c-4.6,0-9.3-0.1-13.9,0c-2.4,0.1-3.7-0.4-3.4-3.2c0.5-4.9-2-11.2,1-14.2c2.4-2.4,8.8-0.7,13.4-0.8
	c5.6-0.1,11.3,0.1,16.9-0.1c2.6-0.1,4,0.4,3.8,3.5c-0.3,3.8-0.2,7.6,0,11.4c0.1,2.6-0.7,3.5-3.3,3.4
	C391,400.4,386.2,400.5,381.4,400.5z"/>
<path class="st8" d="M81.9,382.4c5,0,9.9,0.1,14.9,0c2.1-0.1,3.2,0.5,2.8,2.8c0,0.2,0,0.3,0,0.5c-0.1,4.8,1.7,11-0.7,14
	c-2.5,3.1-9,0.8-13.7,0.9c-5.6,0.2-11.3-0.1-16.9,0.1c-2.7,0.1-3.9-0.5-3.7-3.5c0.3-4,0.2-7.9,0-11.9c-0.1-2.2,0.7-2.9,2.9-2.8
	C72.3,382.5,77.1,382.4,81.9,382.4z"/>
<path class="st8" d="M132,400.5c-4.8,0-9.6-0.1-14.4,0c-2.4,0.1-3.2-0.8-3.1-3.1c0.2-4,0.2-7.9,0-11.9c-0.2-2.8,1.1-3.2,3.5-3.2
	c9.4,0.1,18.9,0.1,28.3,0c2.7,0,3.3,1,3.2,3.4c-0.2,4.8,1.5,10.9-0.8,13.9c-2.2,2.9-8.7,0.6-13.3,0.9
	C134.3,400.6,133.2,400.5,132,400.5z"/>
<path class="st8" d="M181.6,400.5c-4.6,0-9.3-0.1-13.9,0.1c-2.7,0.1-3.5-0.9-3.3-3.4c0.4-4.7-1.9-10.8,0.9-13.9
	c2.6-2.9,8.8-0.7,13.3-0.9c5.8-0.2,11.6,0.1,17.4-0.1c2.4-0.1,3.6,0.4,3.5,3.2c-0.2,4-0.3,7.9,0,11.9c0.2,2.9-1.1,3.2-3.5,3.1
	C191.2,400.4,186.4,400.5,181.6,400.5z"/>
<path class="st8" d="M231.5,400.5c-4.5,0-8.9-0.1-13.4,0c-2.6,0.1-4-0.3-3.8-3.4c0.4-4.7-1.9-10.8,0.9-13.9
	c2.6-2.9,8.8-0.7,13.3-0.8c5.8-0.1,11.6,0.1,17.4-0.1c2.4-0.1,3.7,0.5,3.4,3.2c-0.4,4.9,2,11.2-1,14.2c-2.4,2.4-8.8,0.7-13.4,0.8
	C233.8,400.6,232.7,400.5,231.5,400.5z"/>
<path class="st8" d="M282.1,382.4c4.8,0,9.6,0.1,14.4,0c2.1-0.1,3.1,0.7,2.8,2.8c0,0.2,0,0.3,0,0.5c-0.1,4.8,1.5,10.8-0.9,13.9
	c-2.2,2.9-8.6,0.8-13.2,0.9c-6,0.2-11.9-0.1-17.9,0.1c-2.4,0.1-3.2-0.7-3.1-3.1c0.2-4.1,0.2-8.3,0-12.4c-0.1-2.2,0.8-2.8,2.9-2.8
	C272.1,382.5,277.1,382.4,282.1,382.4z"/>
<path class="st8" d="M331.6,400.5c-4.6,0-9.3-0.2-13.9,0.1c-2.9,0.2-3.7-0.9-3.5-3.6c0.2-3.6,0.2-7.3,0-10.9
	c-0.1-2.6,0.4-3.8,3.4-3.7c9.4,0.2,18.9,0.2,28.3,0c2.6,0,3.5,0.8,3.3,3.4c-0.4,4.8,1.9,10.8-0.9,13.9c-2.6,2.9-8.7,0.6-13.3,0.9
	C333.9,400.6,332.7,400.5,331.6,400.5z"/>
<path class="st8" d="M431.8,400.5c-4.8,0-9.6-0.1-14.4,0.1c-2.5,0.1-3.5-0.5-3.4-3.2c0.3-4.8-1.6-11,0.8-14c2.5-3.2,9-0.8,13.7-1
	c5.6-0.2,11.3,0.1,16.9-0.1c2.7-0.1,3.9,0.5,3.7,3.5c-0.2,4-0.2,7.9,0,11.9c0.1,2.2-0.8,2.9-2.9,2.8
	C441.4,400.5,436.6,400.5,431.8,400.5z"/>
<path class="st8" d="M82.5,433.7c-4.8,0-9.6-0.1-14.4,0c-2.6,0.1-3.5-0.7-3.4-3.4c0.3-4.8-1.4-10.8,0.9-13.9c2.2-3,8.6-0.8,13.2-0.9
	c6-0.2,11.9,0.1,17.9-0.1c2.4-0.1,3.2,0.7,3.1,3.1c-0.2,4.1-0.1,8.3,0,12.4c0.1,2.2-0.6,2.9-2.8,2.8
	C92.1,433.6,87.3,433.7,82.5,433.7z"/>
<path class="st8" d="M132.3,433.7c-4.8,0-9.6-0.1-14.4,0c-2.7,0.1-3.5-0.9-3.3-3.4c0.3-4.8-1.9-10.8,0.8-13.9
	c2.6-2.9,8.7-0.8,13.3-0.9c5.8-0.2,11.6,0.1,17.4-0.1c2.9-0.1,3.7,0.9,3.5,3.7c-0.2,3.8-0.2,7.6,0,11.4c0.2,2.7-0.9,3.4-3.4,3.3
	C141.6,433.6,136.9,433.7,132.3,433.7z"/>
<path class="st8" d="M181.7,433.7c-4.6,0-9.3-0.1-13.9,0c-2.6,0.1-3.5-0.9-3.3-3.4c0.3-4.8-1.9-10.8,0.8-13.9
	c2.6-3,8.7-0.8,13.3-0.9c5.8-0.2,11.6,0.1,17.4-0.1c2.9-0.1,3.7,0.8,3.5,3.6c-0.2,4-0.2,7.9,0,11.9c0.1,2.2-0.8,2.9-2.9,2.8
	C191.6,433.6,186.7,433.7,181.7,433.7z"/>
<path class="st8" d="M231.4,433.7c-4.6,0-9.3-0.1-13.9,0c-2.3,0.1-3.2-0.7-3.2-3.1c0.2-4.1,0.1-8.3,0-12.4c-0.1-2.2,0.8-2.8,2.9-2.8
	c9.8,0.1,19.5,0.1,29.3,0c2.1,0,3.1,0.6,2.8,2.8c0,0.2,0,0.3,0,0.5c-0.1,4.8,1.6,11-0.8,13.9c-2.5,3.2-9,0.7-13.7,1
	C233.8,433.8,232.6,433.7,231.4,433.7z"/>
<path class="st8" d="M282.3,415.5c1,0,2,0,3,0c15.4,0,15.3,0,14.1,15.4c-0.2,2.1-0.8,2.9-2.9,2.9c-9.8-0.1-19.5-0.1-29.3,0
	c-2.1,0-2.7-0.7-2.9-2.8c-1.2-15.4-1.2-15.4,14-15.4C279.6,415.5,280.9,415.5,282.3,415.5z"/>
<path class="st8" d="M331.6,433.7c-4.5,0-9-0.2-13.4,0.1c-3.4,0.2-4.2-1.1-4-4.2c0.2-3.5,0.2-7,0-10.4c-0.1-2.6,0.4-3.8,3.4-3.8
	c9.4,0.2,18.9,0.2,28.3,0c2.6,0,3.5,0.8,3.3,3.4c-0.4,4.8,1.9,10.8-0.9,13.9c-2.6,3-8.7,0.6-13.3,1
	C333.9,433.8,332.8,433.7,331.6,433.7z"/>
<path class="st8" d="M380.2,415.5c6.2,0,11,0.1,15.8,0c2.3-0.1,3.3,0.6,3.2,3c-0.2,4.1-0.1,8.3,0,12.4c0.1,2.2-0.8,2.9-2.9,2.9
	c-9.8-0.1-19.5-0.1-29.3,0c-2.2,0-3.1-0.7-2.8-2.8c0-0.2,0-0.3,0-0.5c0.1-4.8,0.1-9.6,0.2-14.4C370.1,414.7,375.9,416,380.2,415.5z"
	/>
<path class="st8" d="M431.2,433.7c-4.6,0-9.3-0.1-13.9,0.1c-2.7,0.1-3.4-0.8-3.3-3.4c0.2-4.8-1.6-11,0.8-14c2.5-3.1,9-0.8,13.7-0.9
	c5.8-0.2,11.6,0.1,17.4-0.1c2.3-0.1,3.2,0.6,3.1,3.1c-0.2,4.1-0.1,8.3,0,12.4c0.1,2.2-0.8,2.9-2.9,2.8
	C441.1,433.7,436.2,433.7,431.2,433.7z"/>
<path class="st30" d="M480.3,348.9c1,0,2,0,3,0c15.2,0,15.5,0.5,13.7,15.9c-0.2,1.9-0.9,2.5-2.7,2.5c-9.1,0-18.2-0.1-27.3,0
	c-2.1,0-3-0.6-2.9-2.8c0.1-4.3,0.1-8.6,0-12.9c-0.1-2.2,0.8-2.9,2.9-2.8C471.3,349,475.8,348.9,480.3,348.9z"/>
<path class="st30" d="M34.3,367.4c-5.3,0-9.6-0.2-13.9,0.1c-2.9,0.2-3.7-0.9-3.6-3.7c0.2-4,0.1-8,0-11.9c-0.1-2.1,0.7-2.9,2.9-2.9
	c9.1,0.1,18.2,0.1,27.3,0c2.3,0,3,0.9,2.8,2.9c0,0.2,0,0.3,0,0.5c-0.1,4.8,1.7,11.6-0.7,13.9C45.4,369.6,38.7,366.8,34.3,367.4z"/>
<path class="st8" d="M33.1,400.5c-4.3,0-8.6-0.1-12.9,0c-2.5,0.1-3.6-0.6-3.4-3.3c0.3-4.8-1.4-10.8,0.9-13.9
	c2.3-3.1,8.6-0.8,13.2-0.9c5.3-0.2,10.6,0.1,15.9-0.1c2.4-0.1,3.1,0.7,3.1,3.1c-0.2,4.1-0.2,8.3,0,12.4c0.1,2.2-0.7,2.8-2.8,2.8
	C42.3,400.4,37.7,400.5,33.1,400.5z"/>
<path class="st8" d="M480.2,400.5c-4.3,0-8.6-0.1-12.9,0c-2.4,0.1-3.6-0.3-3.4-3.2c0.3-4,0.2-7.9,0-11.9c-0.1-2.2,0.4-3.2,2.9-3.2
	c8.9,0.1,17.9,0.2,26.8,0c2.7,0,3.4,1,3.2,3.5c-0.4,4.7,1.9,10.8-0.9,13.9c-2.6,2.8-8.7,0.6-13.3,0.9
	C481.9,400.6,481.1,400.5,480.2,400.5z"/>
<path class="st8" d="M33.1,415.5c4.6,0,9.3,0.1,13.9,0c2.2-0.1,3,0.7,2.8,2.8c0,0.2,0,0.3,0,0.5c-0.1,4.8,1.6,11-0.8,13.9
	c-2.5,3.1-9,0.8-13.7,1c-5.1,0.2-10.3,0-15.4,0.1c-2.4,0.1-3.2-0.7-3.1-3.1c0.2-4.1,0.2-8.3,0-12.4c-0.1-2.2,0.8-2.8,2.9-2.8
	C24.2,415.6,28.6,415.5,33.1,415.5z"/>
<path class="st8" d="M480.1,433.7c-4.3,0-8.6-0.2-12.9,0.1c-2.7,0.1-3.4-0.9-3.3-3.4c0.2-4.8-1.6-11,0.8-13.9
	c2.5-3.1,9-0.8,13.7-0.9c5.1-0.2,10.3,0.1,15.4-0.1c2.4-0.1,3.2,0.7,3.1,3.1c-0.2,4.1-0.1,8.3,0,12.4c0.1,2.2-0.9,2.9-2.9,2.8
	C489.4,433.7,484.7,433.7,480.1,433.7z"/>
<path class="st31" d="M139.3,281.9c1,5.9-2.4,6.4-7.1,6.2c-7.8-0.3-7.8-0.1-8.1-6.1c0.5-9,0.5-9,8.4-9c7.9,0,6.7-0.6,6.8,6.9
	C139.2,280.6,139.3,281.3,139.3,281.9z"/>
<path class="st32" d="M139.2,163.2c8.3,0.1,7.1-0.9,7.2,8.1c0,7.9,0.8,6.8-7.9,6.9c-7,0-7.1,0-7-8.4
	C131.4,162.1,130.8,163.3,139.2,163.2z"/>
<path class="st8" d="M382.7,262.1c-6.9,0.1-12.3-5.2-12.5-12.1c-0.1-7,5.6-12.8,12.5-12.7c6.7,0.1,12.4,5.9,12.3,12.5
	C395,256.5,389.5,262,382.7,262.1z"/>
</svg>
