<?xml version="1.0" encoding="utf-8"?>
<!-- Generator: Adobe Illustrator 26.0.3, SVG Export Plug-In . SVG Version: 6.00 Build 0)  -->
<svg version="1.1" id="Capa_1" xmlns="http://www.w3.org/2000/svg" xmlns:xlink="http://www.w3.org/1999/xlink" x="0px" y="0px"
	 viewBox="0 0 512 512" style="enable-background:new 0 0 512 512;" xml:space="preserve">
<style type="text/css">
	.st0{fill:#3C86CF;}
	.st1{fill:#444444;}
	.st2{fill:#FECDBE;}
	.st3{fill:#D67E4A;}
	.st4{fill:#5A5A5A;}
	.st5{fill:#EF7280;}
	.st6{fill:#EA5569;}
	.st7{fill:#C76D36;}
	.st8{fill:#FEFEFE;}
	.st9{fill:#0078C7;}
	.st10{fill:#FEAF9D;}
	.st11{fill:#FEA68E;}
	.st12{fill:#FDA68E;}
	.st13{fill:#FD8F83;}
	.st14{fill:#FD8E82;}
	.st15{fill:#FDFDFD;}
	.st16{fill:#FCAE9C;}
	.st17{fill:#010101;}
	.st18{fill:#010000;}
	.st19{fill:#8BA2B6;}
	.st20{fill:#404040;}
	.st21{fill:#F78EA3;}
	.st22{fill:#DCC99F;}
	.st23{fill:#FEE3C1;}
	.st24{fill:#DDCA9F;}
	.st25{fill:#C6EEBB;}
	.st26{fill:#EF5475;}
	.st27{fill:#57758C;}
	.st28{fill:#A9E699;}
	.st29{fill:#F1D0A4;}
	.st30{fill:#FCFCFC;}
	.st31{fill:#FEFDFD;}
	.st32{fill:#FEFCFD;}
	.st33{fill:#E39442;}
	.st34{fill:#FEC150;}
	.st35{fill:#FECF64;}
	.st36{fill:#E18324;}
	.st37{fill:#DCE9FA;}
	.st38{fill:#CAE1FD;}
	.st39{fill:#DF8224;}
	.st40{fill:#DC636D;}
	.st41{fill:#DC626D;}
	.st42{fill:#FEEF81;}
	.st43{fill:#95E5FE;}
	.st44{fill:#F4C781;}
	.st45{fill:#00D1FE;}
	.st46{fill:#FEDB64;}
	.st47{fill:#F4AE72;}
	.st48{fill:#5B5D6E;}
	.st49{fill:#F4AE73;}
	.st50{fill:#464655;}
	.st51{fill:#5A5C6D;}
</style>
<path d="M74.7,511.1c-9.7-2.1-18.5-5.9-25-13.7c-10.9-13-12.4-30-4.1-44.8c0.5-0.8,0.9-1.7,1.6-3c-11-1-19.9-5.5-26.5-14.1
	c-8.7-11.4-9-28.7-0.5-40.3c8.7-12,23.9-17.5,36.6-13.2c4.3,1.4,8,3.9,10.9,7.4c1.3,1.6,2,1.5,3.4,0.1c15.6-15.7,31.3-31.4,47-47.1
	c1.7-1.7,1.8-3.8,2.1-5.9c3.3-24.7,6.4-49.5,10-74.2c4.9-32.7,33.7-57.3,66.6-57.6c10.2-0.1,17.5,7,17.8,17.2
	c0.3,8.7-1,17.6,1.3,26.2c4.6,17.6,20.9,28.4,39.1,26.4c17.1-1.9,30.3-16.7,31-35.1c0.2-5.5,0-10.9,0.1-16.4
	c0.1-12,7.6-18.9,19.7-18.2c35.3,2,61.7,27.6,65.8,63.1c2.7,23.3,6,46.6,9.1,69.8c0.2,1.7,0.6,3.2,1.9,4.5
	c16.2,16.3,32.4,32.6,48.7,48.9c11.2-13.3,26.1-12.5,36.7-7.3c13.7,6.7,20.7,20.4,18.7,36.2c-1.7,13.6-13.2,25.8-26.8,28.5
	c-1.9,0.4-3.8,0.7-6.1,1.1c5.1,8.5,7.8,17.2,6.5,27.1c-2.2,16.8-14.7,30.4-31.3,33.4c-0.9,0.2-1.9,0.5-2.8,0.8
	C309.1,511.1,191.9,511.1,74.7,511.1z"/>
<path d="M250.7,203.3c-32.7,0.2-59.6-25.5-60.9-58.2c0-0.7-0.1-1.3-0.1-2c-0.1-3.3,1-7.3-0.5-9.7c-1.8-2.9-6-0.5-9.2-1
	c-4.8-0.7-7.8-3.6-8-8.6c-1.1-33.4,11.5-59.5,40.9-76.4c2.8-1.6,4.1-3,3.5-6.5c-2.3-15.5,7.4-31.3,22.1-36.4
	c15.9-5.5,33.3,0.7,41.4,14.7c3.9,6.8,5.9,14,4.5,21.8c-0.5,2.7,0.1,4.4,2.8,5.9c30,16.9,42.8,43.2,41.7,77c-0.2,6.2-3.8,9.3-10,8.9
	c-0.3,0-0.7-0.1-1-0.1c-6.6-0.6-6.9-0.6-6.6,6c1.3,33.5-21.4,56.8-46.5,62.9C260.3,202.8,255.5,203.4,250.7,203.3z"/>
<path class="st42" d="M191.1,316.3c-3-25.1-6.1-50.2-9.1-75.3c-0.6-4.6-1-9.2-1.7-13.8c-0.4-2.3,0.3-3.2,2.5-3.8
	c4-1.2,8.1-1.6,12.2-2.2c2.7-0.4,3.5,0.5,3.5,3.1c0,6.6-0.1,13.3,0.4,19.8c2.7,36.1,43.7,58.5,75.5,41.2
	c19-10.3,28.2-26.6,28.4-48.1c0-4.5,0.1-8.9,0-13.4c0-2.1,0.7-3.1,2.9-2.6c0.5,0.1,1,0.1,1.5,0.2c14.4,1.6,14.1,1.5,12.4,15.7
	c-4,32.2-7.7,64.4-11.4,96.6c-1.3,11.3-3.3,22.6-3.2,34.1c0.1,15.1,5.6,29.1,8.6,43.6c1.5,7.1,4.5,13.9,4.5,21.3
	c-1.4,0.7-2.9,0.4-4.4,0.4c-25.5,0-50.9,0-76.4,0c-5.7,0-6.1-0.4-6.1-6.8c-0.1-22.5,0-45,0-67.5c0-1.8,0-3.6-0.1-5.5
	c-0.4-8.4-4.6-14-12.4-16.9c-6.1-2.2-12.1-4.4-17.4-8.2C196.9,325.1,193.2,321.4,191.1,316.3z"/>
<path class="st43" d="M329.7,494.5c-30.8,0-61.5-0.1-92.3,0.1c-4.2,0-5.2-1.1-5.1-5.2c0.3-11.9,0.2-23.8,0-35.7
	c0-2.9,0.3-4.3,3.9-4.3c61.3,0.1,122.7,0.1,184,0.1c13.9,0,23.9,9.6,23.9,22.5c0,13-9.7,22.4-23.7,22.5
	C390.2,494.6,360,494.5,329.7,494.5z"/>
<path class="st44" d="M336.4,233.5c13.2,10.9,17.5,24.9,19.4,40.3c2.8,23.3,6.1,46.6,9.2,69.8c0.4,3.4,1.9,6.2,4.4,8.6
	c19.4,19.3,38.7,38.6,57.9,57.9c2.8,2.8,5.7,5.1,10,3.8c4.3-1.4,5.4-4.7,6.1-8.7c1-6.2,6-9.3,12.5-8.2c8.5,1.4,14.8,8.7,14.8,17.4
	c0,8.8-6.2,17.1-14.6,18.1c-11.2,1.3-22.5,0.3-33.7,0.5c-1.9,0-2.9-1.4-4.1-2.5c-20.6-20.6-41.2-41.2-61.8-61.8
	c-7.4-7.4-11.8-16.1-13.8-26.4c-3.6-18.7-7.2-37.3-11.1-55.9c-1.5-7.2,0.5-14.1,1.2-21.1C333.8,255,335.2,244.7,336.4,233.5z"/>
<path class="st44" d="M164.5,233.7c1.6,13.1,2.5,25.6,4.7,37.9c2.1,11.8-1.6,22.6-3.6,33.7c-2.2,12.3-5,24.6-7.3,36.9
	c-1.9,10.4-6.5,19.3-14,26.7c-20.5,20.4-40.9,40.9-61.4,61.4c-1.3,1.3-2.4,2.7-4.5,2.7c-10.7-0.1-21.5,0.1-32.2-0.4
	c-6.8-0.3-11.6-4.5-14.2-10.8c-2.7-6.5-1.7-12.6,2.5-18.2c2.6-3.4,6.1-5.5,10.3-6.4c6.8-1.6,11.9,1.6,13,8.5c0.6,4,2.1,6.9,6,8.2
	c3.9,1.2,6.7-0.5,9.3-3.1c19.6-19.7,39.3-39.3,59-58.9c3.1-3.1,3.8-6.7,4.3-10.7c3.7-26.5,6.4-53.2,11-79.5
	C149.3,250.5,155.3,241.3,164.5,233.7z"/>
<path class="st45" d="M144.7,494.5c-21.3,0-42.7,0.1-64,0c-14.1-0.1-23.9-9.4-23.9-22.3c0-11.8,8.8-22,20.8-22.4
	c18.8-0.6,37.7-0.2,56.5-0.3c2.2,0,2.7,0.8,2.9,2.9c1.8,17.3,7.4,23.5,24.5,27.4c16.7,3.8,33.5,7.5,50.2,11.3c1.5,0.3,4.1-0.2,3.9,2
	c-0.2,2.7-2.9,1.4-4.5,1.4C189,494.5,166.8,494.5,144.7,494.5z"/>
<path class="st46" d="M191.1,316.3c5.1,4.9,9.4,10.5,15.9,13.8c3.7,1.9,7.7,3,11.5,4.5c10.3,4.1,14.1,9.8,14.1,21.1
	c0,23.7,0.1,47.3-0.1,71c0,4.4,1,5.9,5.7,5.9c26.6-0.2,53.3,0,79.9,0c-1.5,0.9-3.2,0.5-4.8,0.5c-42,0-84-0.1-126.1,0
	c-4.4,0-5.2-0.9-4.1-5.1c3.4-12.4,6-25.1,9.6-37.4c5.2-17.6,3-35,0.7-52.6C192.5,330.8,191.9,323.6,191.1,316.3z"/>
<path class="st8" d="M103.9,432.4c16.3-16.3,31.9-32.3,48-47.7c12.7-12.1,21-26.1,23.3-43.6c0.2-1.3,0.7-2.5,1.1-4.2
	c4.9,24.9,4.5,31.6-3.3,63.9c-2.3,9.4-4.7,18.9-7,28.3c-0.5,2.1-0.8,3.9-3.9,3.9c-18.7-0.2-37.3-0.1-56-0.1
	C105.6,433,105.2,432.8,103.9,432.4z"/>
<path class="st8" d="M324.9,337.5c0.8,3.7,1.5,7.4,2.3,11.1c2.9,12.8,9.2,23.5,18.5,32.7c17,16.8,33.9,33.8,50.8,50.6
	c-0.8,1.8-2.1,1.2-3.1,1.2c-17.8,0-35.7,0-53.5,0.1c-2.8,0-4.1-0.7-4.8-3.5c-3.9-16-7.8-32-11.9-48c-3.2-12.5-1.1-24.9,0.3-37.4
	c0.3-2.3,0.6-4.6,0.9-6.9C324.5,337.4,324.7,337.5,324.9,337.5z"/>
<path class="st44" d="M196.8,470.4c-12.1-2.6-24.3-5.2-36.4-8c-3.3-0.8-5.9-2.8-6.3-6.6c-0.6-5.8-0.6-5.8,4.9-5.8
	c11.7,0,23.4,0.1,35.1-0.1c3.9-0.1,5.4,1.5,5.4,5.1c0.1,3.6,0.2,7.2-0.1,10.9C199.2,467.7,199.6,470,196.8,470.4z"/>
<path class="st47" d="M196.8,470.4c2.4-6.1,0.8-12.3,0.8-18.5c0-1.7-1.9-1.5-3.2-1.5c-12.2,0-24.5,0.1-36.7-0.1
	c-4.5-0.1-3.2,3.1-3.7,5.4c-1.7-6.3-1.7-6.3,4.2-6.3c17.8,0,35.6,0.1,53.4-0.1c3.5,0,4.5,0.9,4.3,4.4c-0.3,5.9-0.1,11.9-0.1,17.8
	c0,2.1-0.1,3.5-2.9,2.8C207.6,472.9,202.2,471.7,196.8,470.4z"/>
<path class="st48" d="M264.6,56c26.6,4.8,49.8,33.6,47.3,59c-6.4-1.2-11.6-4.6-16.4-8.7c-3.9-3.3-7.4-7.1-10.7-11
	c-4.5-5.2-7.6-6.2-13.8-2.8c-14.3,7.7-29.3,13.7-45.2,17.2c-1.6-1.7-1.3-3.7-0.8-5.6c4.7-19.5,15-35.2,31.9-46.4
	C259.1,56.1,261.6,54.9,264.6,56z"/>
<path class="st44" d="M294.3,145.8c-0.4,20.5-19.5,40.4-38.9,40.4c-14.6-8.6-21.5-21.8-23.1-38.3c-0.4-3.9,1.5-6.7,5.1-8.2
	c10.9-4.7,22.2-8.5,32.6-14.5c2.3-1.3,4.6-0.4,6.3,1.3c4,4,8.8,7.1,13.7,9.8C294,138.6,295.6,141.5,294.3,145.8z"/>
<path class="st49" d="M294.3,145.8c0.4-4.2-1.5-6.4-5.2-8.5c-4.8-2.7-9.7-5.6-13.5-9.9c-1.6-1.8-3.3-2.4-5.6-1
	c-9,5.6-19,9.1-28.8,13c-7.9,3.1-9.2,5.3-7.3,13.5c2.9,12.6,8.9,23.3,19.6,31c0.8,0.6,1.3,1.5,1.9,2.2c-14.6,3.2-33.8-5.9-42.4-19.7
	c-6.5-10.5-7.4-22-7.2-33.8c0.1-2.4,1.7-2.6,3.3-2.8c22-3.3,43.1-9.4,63-19.4c2.4-1.2,3.6-0.2,5,1.3c4.6,5,9.7,9.4,15.6,13
	c1.1,0.7,2.4,1.2,2.3,2.9C294.7,133.6,295.9,139.8,294.3,145.8z"/>
<path class="st50" d="M264.6,56c-4.6-0.3-7.6,3-10.8,5.4c-14.6,10.8-23.4,25.5-27.7,42.9c-0.4,1.7-0.2,3.6-0.4,5.4
	c-11.3,3.4-22.9,4.3-34.5,5.8c-3,0.4-2.4-2.1-2.3-3.8c0.5-13.4,5.4-25.1,14-35.2c13.3-15.6,30.5-23.2,51.1-22.4
	C257.6,54.3,261.2,54.7,264.6,56z"/>
<path class="st51" d="M250.7,19.2c9.4,0.1,17.5,7.8,17.7,16.6c0.1,2.9-0.9,3.9-3.7,3.4c-9.5-1.9-19-1.9-28.5,0
	c-2.8,0.5-3.8-0.4-3.8-3.3C232.7,26.8,241.1,19.1,250.7,19.2z"/>
</svg>
